<mxfile host="Electron" modified="2023-08-28T16:50:15.900Z" agent="Mozilla/5.0 (Windows NT 10.0; Win64; x64) AppleWebKit/537.36 (KHTML, like Gecko) draw.io/21.6.8 Chrome/114.0.5735.289 Electron/25.5.0 Safari/537.36" etag="LtonLN333Ole9GgchlMr" version="21.6.8" type="device" pages="7">
  <diagram name="KhachHang" id="wXEaGiwQ2h_3pWX37oRQ">
    <mxGraphModel dx="1834" dy="2086" grid="1" gridSize="10" guides="1" tooltips="1" connect="0" arrows="0" fold="1" page="0" pageScale="1" pageWidth="850" pageHeight="1100" math="0" shadow="0">
      <root>
        <mxCell id="0" />
        <mxCell id="1" parent="0" />
        <mxCell id="-3NE8UHEOBMdapcska96-1" value="1.1&#xa;&#xa;THÊM TÀI KHOẢN KHÁCH HÀNG" style="swimlane;fontStyle=1;childLayout=stackLayout;horizontal=1;startSize=20;fillColor=#bac8d3;horizontalStack=0;resizeParent=1;resizeParentMax=0;resizeLast=0;collapsible=0;marginBottom=0;swimlaneFillColor=#bac8d3;fontSize=13;whiteSpace=wrap;gradientColor=none;rounded=1;glass=0;verticalAlign=top;spacing=-1;fontFamily=Times New Roman;" parent="1" vertex="1">
          <mxGeometry x="40" y="-720" width="120" height="80" as="geometry" />
        </mxCell>
        <mxCell id="-3NE8UHEOBMdapcska96-5" value="1.2&#xa;&#xa;TRA CỨU THÔNG TIN KHÁCH HÀNG" style="swimlane;fontStyle=1;childLayout=stackLayout;horizontal=1;startSize=20;fillColor=#bac8d3;horizontalStack=0;resizeParent=1;resizeParentMax=0;resizeLast=0;collapsible=0;marginBottom=0;swimlaneFillColor=#bac8d3;fontSize=13;gradientColor=none;rounded=1;glass=0;verticalAlign=top;spacing=-1;fontFamily=Times New Roman;whiteSpace=wrap;" parent="1" vertex="1">
          <mxGeometry x="640" y="-720" width="120" height="80" as="geometry" />
        </mxCell>
        <mxCell id="-3NE8UHEOBMdapcska96-6" value="1.3&#xa;&#xa;CHỈNH SỬA THÔNG TIN KHÁCH HÀNG" style="swimlane;fontStyle=1;childLayout=stackLayout;horizontal=1;startSize=20;fillColor=#bac8d3;horizontalStack=0;resizeParent=1;resizeParentMax=0;resizeLast=0;collapsible=0;marginBottom=0;swimlaneFillColor=#bac8d3;fontSize=13;whiteSpace=wrap;gradientColor=none;rounded=1;glass=0;verticalAlign=top;spacing=-1;fontFamily=Times New Roman;" parent="1" vertex="1">
          <mxGeometry x="40" y="-480" width="120" height="80" as="geometry" />
        </mxCell>
        <mxCell id="-3NE8UHEOBMdapcska96-7" value="1.4&#xa;&#xa;XÓA TÀI KHOẢN KHÁCH HÀNG" style="swimlane;fontStyle=1;childLayout=stackLayout;horizontal=1;startSize=20;fillColor=#bac8d3;horizontalStack=0;resizeParent=1;resizeParentMax=0;resizeLast=0;collapsible=0;marginBottom=0;swimlaneFillColor=#bac8d3;fontSize=13;whiteSpace=wrap;gradientColor=none;rounded=1;glass=0;verticalAlign=top;spacing=-1;fontFamily=Times New Roman;" parent="1" vertex="1">
          <mxGeometry x="640" y="-480" width="120" height="80" as="geometry" />
        </mxCell>
        <mxCell id="-3NE8UHEOBMdapcska96-11" value="KHÁCH" style="html=1;dashed=0;whiteSpace=wrap;fontStyle=1;fillColor=#f5f5f5;fontColor=#333333;strokeColor=#00B050;strokeWidth=2;fontFamily=Times New Roman;fontSize=15;" parent="1" vertex="1">
          <mxGeometry x="320" y="-720" width="160" height="80" as="geometry" />
        </mxCell>
        <mxCell id="-3NE8UHEOBMdapcska96-12" value="&amp;nbsp;NHÂN VIÊN QUẢN LÝ" style="html=1;dashed=0;whiteSpace=wrap;fontStyle=1;fillColor=#f5f5f5;fontColor=#333333;strokeColor=#4472C4;strokeWidth=2;fontFamily=Times New Roman;fontSize=15;" parent="1" vertex="1">
          <mxGeometry x="320" y="-600" width="160" height="80" as="geometry" />
        </mxCell>
        <mxCell id="-3NE8UHEOBMdapcska96-13" value="2&lt;span style=&quot;white-space: pre; font-size: 12px;&quot;&gt;&#x9;&lt;/span&gt;Danh sách tài khoản khách hàng" style="html=1;dashed=0;whiteSpace=wrap;shape=mxgraph.dfd.dataStoreID;align=left;spacingLeft=8;points=[[0,0],[0.5,0],[1,0],[0,0.5],[1,0.5],[0,1],[0.5,1],[1,1]];fontSize=12;verticalAlign=middle;fillColor=#dae8fc;fontStyle=1;fontFamily=Times New Roman;strokeColor=#6c8ebf;" parent="1" vertex="1">
          <mxGeometry x="295" y="-320" width="210" height="30" as="geometry" />
        </mxCell>
        <mxCell id="-3NE8UHEOBMdapcska96-14" value="1&lt;span style=&quot;white-space: pre; font-size: 12px;&quot;&gt;&#x9;&lt;/span&gt;Danh sách thông tin khách hàng" style="html=1;dashed=0;whiteSpace=wrap;shape=mxgraph.dfd.dataStoreID;align=left;spacingLeft=8;points=[[0,0],[0.5,0],[1,0],[0,0.5],[1,0.5],[0,1],[0.5,1],[1,1]];fontSize=12;verticalAlign=middle;fillColor=#dae8fc;fontStyle=1;fontFamily=Times New Roman;strokeColor=#6c8ebf;" parent="1" vertex="1">
          <mxGeometry x="295" y="-830" width="210" height="30" as="geometry" />
        </mxCell>
        <mxCell id="-3NE8UHEOBMdapcska96-24" value="Kết quả tra cứu thông tin khách hàng" style="text;html=1;align=center;verticalAlign=middle;resizable=0;points=[];autosize=1;strokeColor=none;fillColor=none;fontSize=12;fontFamily=Times New Roman;fontStyle=1" parent="1" vertex="1">
          <mxGeometry x="160" y="-445" width="220" height="30" as="geometry" />
        </mxCell>
        <mxCell id="OeDSX1Pt9a-4lTop-bvh-3" value="" style="endArrow=classic;html=1;rounded=0;edgeStyle=orthogonalEdgeStyle;strokeColor=#4472C4;fontSize=12;jumpStyle=arc;fontFamily=Times New Roman;fontStyle=1" parent="1" source="-3NE8UHEOBMdapcska96-12" target="-3NE8UHEOBMdapcska96-7" edge="1">
          <mxGeometry width="50" height="50" relative="1" as="geometry">
            <mxPoint x="410" y="-480.69" as="sourcePoint" />
            <mxPoint x="620" y="-480.69" as="targetPoint" />
            <Array as="points">
              <mxPoint x="440" y="-440" />
            </Array>
          </mxGeometry>
        </mxCell>
        <mxCell id="OeDSX1Pt9a-4lTop-bvh-6" value="Tài khoản thành viên" style="text;html=1;align=center;verticalAlign=middle;resizable=0;points=[];autosize=1;strokeColor=none;fillColor=none;fontSize=12;fontFamily=Times New Roman;fontStyle=1;rotation=0;" parent="1" vertex="1">
          <mxGeometry x="170" y="-715" width="130" height="30" as="geometry" />
        </mxCell>
        <mxCell id="OeDSX1Pt9a-4lTop-bvh-7" value="Thông tin khách hàng" style="text;html=1;align=center;verticalAlign=middle;resizable=0;points=[];autosize=1;strokeColor=none;fillColor=none;fontSize=12;fontFamily=Times New Roman;fontStyle=1;rotation=0;" parent="1" vertex="1">
          <mxGeometry x="170" y="-695" width="140" height="30" as="geometry" />
        </mxCell>
        <mxCell id="OeDSX1Pt9a-4lTop-bvh-8" value="" style="endArrow=classic;html=1;rounded=0;edgeStyle=orthogonalEdgeStyle;strokeColor=#4472C4;fontSize=12;jumpStyle=arc;fontFamily=Times New Roman;fontStyle=1" parent="1" source="-3NE8UHEOBMdapcska96-12" target="-3NE8UHEOBMdapcska96-1" edge="1">
          <mxGeometry width="50" height="50" relative="1" as="geometry">
            <mxPoint x="420" y="-690" as="sourcePoint" />
            <mxPoint x="210" y="-690" as="targetPoint" />
            <Array as="points">
              <mxPoint x="110" y="-570" />
            </Array>
          </mxGeometry>
        </mxCell>
        <mxCell id="OeDSX1Pt9a-4lTop-bvh-9" value="" style="endArrow=classic;html=1;rounded=0;edgeStyle=orthogonalEdgeStyle;strokeColor=#4472C4;fontSize=12;jumpStyle=arc;fontFamily=Times New Roman;fontStyle=1" parent="1" source="-3NE8UHEOBMdapcska96-1" target="-3NE8UHEOBMdapcska96-12" edge="1">
          <mxGeometry width="50" height="50" relative="1" as="geometry">
            <mxPoint x="190" y="-660" as="sourcePoint" />
            <mxPoint x="400" y="-660" as="targetPoint" />
            <Array as="points">
              <mxPoint x="90" y="-550" />
            </Array>
          </mxGeometry>
        </mxCell>
        <mxCell id="OeDSX1Pt9a-4lTop-bvh-10" value="Thông tin khách hàng" style="text;html=1;align=center;verticalAlign=middle;resizable=0;points=[];autosize=1;strokeColor=none;fillColor=none;fontSize=12;fontFamily=Times New Roman;fontStyle=1" parent="1" vertex="1">
          <mxGeometry x="135" y="-575" width="140" height="30" as="geometry" />
        </mxCell>
        <mxCell id="OeDSX1Pt9a-4lTop-bvh-11" value="Thông tin tài khoản thành viên" style="text;html=1;align=center;verticalAlign=middle;resizable=0;points=[];autosize=1;strokeColor=none;fillColor=none;fontSize=12;fontFamily=Times New Roman;fontStyle=1" parent="1" vertex="1">
          <mxGeometry x="120" y="-595" width="180" height="30" as="geometry" />
        </mxCell>
        <mxCell id="OeDSX1Pt9a-4lTop-bvh-12" value="" style="endArrow=classic;html=1;rounded=0;edgeStyle=orthogonalEdgeStyle;strokeColor=#4472C4;fontSize=12;jumpStyle=arc;fontFamily=Times New Roman;fontStyle=1" parent="1" source="-3NE8UHEOBMdapcska96-12" target="-3NE8UHEOBMdapcska96-5" edge="1">
          <mxGeometry width="50" height="50" relative="1" as="geometry">
            <mxPoint x="380" y="-710" as="sourcePoint" />
            <mxPoint x="590" y="-710" as="targetPoint" />
            <Array as="points">
              <mxPoint x="690" y="-570" />
            </Array>
          </mxGeometry>
        </mxCell>
        <mxCell id="OeDSX1Pt9a-4lTop-bvh-13" value="" style="endArrow=classic;html=1;rounded=0;edgeStyle=orthogonalEdgeStyle;strokeColor=#4472C4;fontSize=12;jumpStyle=arc;fontFamily=Times New Roman;fontStyle=1" parent="1" source="-3NE8UHEOBMdapcska96-5" target="-3NE8UHEOBMdapcska96-12" edge="1">
          <mxGeometry width="50" height="50" relative="1" as="geometry">
            <mxPoint x="600" y="-700" as="sourcePoint" />
            <mxPoint x="390" y="-700" as="targetPoint" />
            <Array as="points">
              <mxPoint x="710" y="-550" />
            </Array>
          </mxGeometry>
        </mxCell>
        <mxCell id="OeDSX1Pt9a-4lTop-bvh-14" value="Kết quả tra cứu thông tin khách hàng" style="text;html=1;align=center;verticalAlign=middle;resizable=0;points=[];autosize=1;strokeColor=none;fillColor=none;fontSize=12;fontFamily=Times New Roman;fontStyle=1" parent="1" vertex="1">
          <mxGeometry x="480" y="-575" width="220" height="30" as="geometry" />
        </mxCell>
        <mxCell id="OeDSX1Pt9a-4lTop-bvh-16" value="Thông tin tra cứu khách hàng" style="text;html=1;align=center;verticalAlign=middle;resizable=0;points=[];autosize=1;strokeColor=none;fillColor=none;fontSize=12;fontFamily=Times New Roman;fontStyle=1" parent="1" vertex="1">
          <mxGeometry x="490" y="-595" width="180" height="30" as="geometry" />
        </mxCell>
        <mxCell id="OeDSX1Pt9a-4lTop-bvh-17" value="" style="endArrow=classic;html=1;rounded=0;edgeStyle=orthogonalEdgeStyle;strokeColor=#4472C4;fontSize=12;jumpStyle=arc;fontFamily=Times New Roman;fontStyle=1" parent="1" source="-3NE8UHEOBMdapcska96-6" target="-3NE8UHEOBMdapcska96-12" edge="1">
          <mxGeometry width="50" height="50" relative="1" as="geometry">
            <mxPoint x="50" y="-540" as="sourcePoint" />
            <mxPoint x="260" y="-540" as="targetPoint" />
            <Array as="points">
              <mxPoint x="380" y="-420" />
            </Array>
          </mxGeometry>
        </mxCell>
        <mxCell id="OeDSX1Pt9a-4lTop-bvh-18" value="" style="endArrow=classic;html=1;rounded=0;edgeStyle=orthogonalEdgeStyle;strokeColor=#4472C4;fontSize=12;jumpStyle=arc;fontFamily=Times New Roman;fontStyle=1" parent="1" source="-3NE8UHEOBMdapcska96-12" target="-3NE8UHEOBMdapcska96-6" edge="1">
          <mxGeometry width="50" height="50" relative="1" as="geometry">
            <mxPoint x="270" y="-530" as="sourcePoint" />
            <mxPoint x="60" y="-530" as="targetPoint" />
            <Array as="points">
              <mxPoint x="360" y="-440" />
            </Array>
          </mxGeometry>
        </mxCell>
        <mxCell id="OeDSX1Pt9a-4lTop-bvh-19" value="" style="endArrow=classic;html=1;rounded=0;edgeStyle=orthogonalEdgeStyle;strokeColor=#4472C4;fontSize=12;jumpStyle=arc;fontFamily=Times New Roman;fontStyle=1" parent="1" source="-3NE8UHEOBMdapcska96-7" target="-3NE8UHEOBMdapcska96-12" edge="1">
          <mxGeometry width="50" height="50" relative="1" as="geometry">
            <mxPoint x="590" y="-430" as="sourcePoint" />
            <mxPoint x="380" y="-430" as="targetPoint" />
            <Array as="points">
              <mxPoint x="420" y="-420" />
            </Array>
          </mxGeometry>
        </mxCell>
        <mxCell id="OeDSX1Pt9a-4lTop-bvh-20" value="Thông tin tra cứu khách hàng" style="text;html=1;align=center;verticalAlign=middle;resizable=0;points=[];autosize=1;strokeColor=none;fillColor=none;fontSize=12;fontFamily=Times New Roman;fontStyle=1" parent="1" vertex="1">
          <mxGeometry x="162" y="-485" width="180" height="30" as="geometry" />
        </mxCell>
        <mxCell id="OeDSX1Pt9a-4lTop-bvh-21" value="" style="endArrow=classic;html=1;rounded=0;edgeStyle=orthogonalEdgeStyle;strokeColor=#4472C4;fontSize=12;jumpStyle=arc;fontFamily=Times New Roman;fontStyle=1" parent="1" source="-3NE8UHEOBMdapcska96-12" target="-3NE8UHEOBMdapcska96-6" edge="1">
          <mxGeometry width="50" height="50" relative="1" as="geometry">
            <mxPoint x="341" y="-540" as="sourcePoint" />
            <mxPoint x="161" y="-460" as="targetPoint" />
            <Array as="points">
              <mxPoint x="340" y="-460" />
            </Array>
          </mxGeometry>
        </mxCell>
        <mxCell id="OeDSX1Pt9a-4lTop-bvh-22" value="Thông tin mới của khách hàng" style="text;html=1;align=center;verticalAlign=middle;resizable=0;points=[];autosize=1;strokeColor=none;fillColor=none;fontSize=12;fontFamily=Times New Roman;fontStyle=1" parent="1" vertex="1">
          <mxGeometry x="170" y="-465" width="180" height="30" as="geometry" />
        </mxCell>
        <mxCell id="OeDSX1Pt9a-4lTop-bvh-23" value="" style="endArrow=classic;html=1;rounded=0;edgeStyle=orthogonalEdgeStyle;strokeColor=#4472C4;fontSize=12;jumpStyle=arc;fontFamily=Times New Roman;fontStyle=1" parent="1" source="-3NE8UHEOBMdapcska96-12" target="-3NE8UHEOBMdapcska96-7" edge="1">
          <mxGeometry width="50" height="50" relative="1" as="geometry">
            <mxPoint x="450" y="-510" as="sourcePoint" />
            <mxPoint x="650" y="-430" as="targetPoint" />
            <Array as="points">
              <mxPoint x="460" y="-460" />
            </Array>
          </mxGeometry>
        </mxCell>
        <mxCell id="OeDSX1Pt9a-4lTop-bvh-24" value="Thông tin tra cứu khách hàng" style="text;html=1;align=center;verticalAlign=middle;resizable=0;points=[];autosize=1;strokeColor=none;fillColor=none;fontSize=12;fontFamily=Times New Roman;fontStyle=1" parent="1" vertex="1">
          <mxGeometry x="460" y="-485" width="180" height="30" as="geometry" />
        </mxCell>
        <mxCell id="OeDSX1Pt9a-4lTop-bvh-25" value="Kết quả tra cứu thông tin khách hàng" style="text;html=1;align=center;verticalAlign=middle;resizable=0;points=[];autosize=1;strokeColor=none;fillColor=none;fontSize=12;fontFamily=Times New Roman;fontStyle=1" parent="1" vertex="1">
          <mxGeometry x="420" y="-445" width="220" height="30" as="geometry" />
        </mxCell>
        <mxCell id="OeDSX1Pt9a-4lTop-bvh-26" value="Danh sách sau khi xóa" style="text;html=1;align=center;verticalAlign=middle;resizable=0;points=[];autosize=1;strokeColor=none;fillColor=none;fontSize=12;fontFamily=Times New Roman;fontStyle=1" parent="1" vertex="1">
          <mxGeometry x="470" y="-465" width="140" height="30" as="geometry" />
        </mxCell>
        <mxCell id="OeDSX1Pt9a-4lTop-bvh-37" value="" style="endArrow=classic;html=1;rounded=0;edgeStyle=orthogonalEdgeStyle;strokeColor=#00b0f0;fontSize=12;jumpStyle=arc;fontFamily=Times New Roman;fontStyle=1" parent="1" source="-3NE8UHEOBMdapcska96-1" target="-3NE8UHEOBMdapcska96-13" edge="1">
          <mxGeometry width="50" height="50" relative="1" as="geometry">
            <mxPoint x="-40" y="-695" as="sourcePoint" />
            <mxPoint x="-200" y="-695" as="targetPoint" />
            <Array as="points">
              <mxPoint x="-20" y="-670" />
              <mxPoint x="-20" y="-310" />
            </Array>
          </mxGeometry>
        </mxCell>
        <mxCell id="OeDSX1Pt9a-4lTop-bvh-46" value="" style="endArrow=classic;html=1;rounded=0;edgeStyle=orthogonalEdgeStyle;strokeColor=#00B050;fontSize=12;jumpStyle=arc;fontFamily=Times New Roman;fontStyle=1" parent="1" source="-3NE8UHEOBMdapcska96-1" target="-3NE8UHEOBMdapcska96-11" edge="1">
          <mxGeometry width="50" height="50" relative="1" as="geometry">
            <mxPoint x="240" y="-620" as="sourcePoint" />
            <mxPoint x="310" y="-800" as="targetPoint" />
            <Array as="points">
              <mxPoint x="240" y="-690" />
              <mxPoint x="240" y="-690" />
            </Array>
          </mxGeometry>
        </mxCell>
        <mxCell id="OeDSX1Pt9a-4lTop-bvh-47" value="" style="endArrow=classic;html=1;rounded=0;edgeStyle=orthogonalEdgeStyle;strokeColor=#00B050;fontSize=12;jumpStyle=arc;fontFamily=Times New Roman;fontStyle=1" parent="1" source="-3NE8UHEOBMdapcska96-11" target="-3NE8UHEOBMdapcska96-1" edge="1">
          <mxGeometry width="50" height="50" relative="1" as="geometry">
            <mxPoint x="310" y="-810" as="sourcePoint" />
            <mxPoint x="170" y="-680" as="targetPoint" />
            <Array as="points">
              <mxPoint x="240" y="-670" />
              <mxPoint x="240" y="-670" />
            </Array>
          </mxGeometry>
        </mxCell>
        <mxCell id="OeDSX1Pt9a-4lTop-bvh-48" value="" style="endArrow=classic;html=1;rounded=0;edgeStyle=orthogonalEdgeStyle;strokeColor=#00b0f0;fontSize=12;jumpStyle=arc;fontFamily=Times New Roman;fontStyle=1" parent="1" source="-3NE8UHEOBMdapcska96-14" target="-3NE8UHEOBMdapcska96-1" edge="1">
          <mxGeometry width="50" height="50" relative="1" as="geometry">
            <mxPoint x="220" y="-790" as="sourcePoint" />
            <mxPoint x="60" y="-790" as="targetPoint" />
            <Array as="points">
              <mxPoint x="360" y="-760" />
              <mxPoint x="110" y="-760" />
            </Array>
          </mxGeometry>
        </mxCell>
        <mxCell id="RQ7utlBOrTCKG2Yn09IC-1" value="" style="endArrow=classic;html=1;rounded=0;edgeStyle=orthogonalEdgeStyle;strokeColor=#00b0f0;fontSize=12;jumpStyle=arc;fontFamily=Times New Roman;fontStyle=1" parent="1" source="-3NE8UHEOBMdapcska96-1" target="-3NE8UHEOBMdapcska96-14" edge="1">
          <mxGeometry width="50" height="50" relative="1" as="geometry">
            <mxPoint x="115" y="-810" as="sourcePoint" />
            <mxPoint x="275" y="-810" as="targetPoint" />
            <Array as="points">
              <mxPoint x="90" y="-780" />
              <mxPoint x="330" y="-780" />
            </Array>
          </mxGeometry>
        </mxCell>
        <mxCell id="RQ7utlBOrTCKG2Yn09IC-2" value="" style="endArrow=classic;html=1;rounded=0;edgeStyle=orthogonalEdgeStyle;strokeColor=#00b0f0;fontSize=12;jumpStyle=arc;fontFamily=Times New Roman;fontStyle=1" parent="1" source="-3NE8UHEOBMdapcska96-5" target="-3NE8UHEOBMdapcska96-14" edge="1">
          <mxGeometry width="50" height="50" relative="1" as="geometry">
            <mxPoint x="680" y="-800" as="sourcePoint" />
            <mxPoint x="520" y="-800" as="targetPoint" />
            <Array as="points">
              <mxPoint x="710" y="-780" />
              <mxPoint x="470" y="-780" />
            </Array>
          </mxGeometry>
        </mxCell>
        <mxCell id="RQ7utlBOrTCKG2Yn09IC-3" value="" style="endArrow=classic;html=1;rounded=0;edgeStyle=orthogonalEdgeStyle;strokeColor=#00b0f0;fontSize=12;jumpStyle=arc;fontFamily=Times New Roman;fontStyle=1" parent="1" source="-3NE8UHEOBMdapcska96-14" target="-3NE8UHEOBMdapcska96-5" edge="1">
          <mxGeometry width="50" height="50" relative="1" as="geometry">
            <mxPoint x="440" y="-760" as="sourcePoint" />
            <mxPoint x="600" y="-760" as="targetPoint" />
            <Array as="points">
              <mxPoint x="440" y="-760" />
              <mxPoint x="690" y="-760" />
            </Array>
          </mxGeometry>
        </mxCell>
        <mxCell id="RQ7utlBOrTCKG2Yn09IC-4" value="" style="endArrow=classic;html=1;rounded=0;edgeStyle=orthogonalEdgeStyle;strokeColor=#00b0f0;fontSize=12;jumpStyle=arc;fontFamily=Times New Roman;fontStyle=1" parent="1" source="-3NE8UHEOBMdapcska96-6" target="-3NE8UHEOBMdapcska96-14" edge="1">
          <mxGeometry width="50" height="50" relative="1" as="geometry">
            <mxPoint y="-450.5" as="sourcePoint" />
            <mxPoint x="-160" y="-450.5" as="targetPoint" />
            <Array as="points">
              <mxPoint x="20" y="-450" />
              <mxPoint x="20" y="-810" />
            </Array>
          </mxGeometry>
        </mxCell>
        <mxCell id="RQ7utlBOrTCKG2Yn09IC-5" value="" style="endArrow=classic;html=1;rounded=0;edgeStyle=orthogonalEdgeStyle;strokeColor=#00b0f0;fontSize=12;jumpStyle=arc;fontFamily=Times New Roman;fontStyle=1" parent="1" source="-3NE8UHEOBMdapcska96-14" target="-3NE8UHEOBMdapcska96-6" edge="1">
          <mxGeometry width="50" height="50" relative="1" as="geometry">
            <mxPoint x="-130" y="-430.42" as="sourcePoint" />
            <mxPoint x="30" y="-430.42" as="targetPoint" />
            <Array as="points">
              <mxPoint y="-820" />
              <mxPoint y="-430" />
            </Array>
          </mxGeometry>
        </mxCell>
        <mxCell id="RQ7utlBOrTCKG2Yn09IC-6" value="" style="endArrow=classic;html=1;rounded=0;edgeStyle=orthogonalEdgeStyle;strokeColor=#00b0f0;fontSize=12;jumpStyle=arc;fontFamily=Times New Roman;fontStyle=1" parent="1" source="-3NE8UHEOBMdapcska96-14" target="-3NE8UHEOBMdapcska96-7" edge="1">
          <mxGeometry width="50" height="50" relative="1" as="geometry">
            <mxPoint x="930" y="-466" as="sourcePoint" />
            <mxPoint x="770" y="-466" as="targetPoint" />
            <Array as="points">
              <mxPoint x="780" y="-810" />
              <mxPoint x="780" y="-450" />
            </Array>
          </mxGeometry>
        </mxCell>
        <mxCell id="RQ7utlBOrTCKG2Yn09IC-7" value="" style="endArrow=classic;html=1;rounded=0;edgeStyle=orthogonalEdgeStyle;strokeColor=#00b0f0;fontSize=12;jumpStyle=arc;fontFamily=Times New Roman;fontStyle=1" parent="1" source="-3NE8UHEOBMdapcska96-7" target="-3NE8UHEOBMdapcska96-14" edge="1">
          <mxGeometry width="50" height="50" relative="1" as="geometry">
            <mxPoint x="770" y="-415" as="sourcePoint" />
            <mxPoint x="930" y="-415" as="targetPoint" />
            <Array as="points">
              <mxPoint x="800" y="-430" />
              <mxPoint x="800" y="-820" />
            </Array>
          </mxGeometry>
        </mxCell>
        <mxCell id="RQ7utlBOrTCKG2Yn09IC-8" value="" style="endArrow=classic;html=1;rounded=0;edgeStyle=orthogonalEdgeStyle;strokeColor=#00b0f0;fontSize=12;jumpStyle=arc;fontFamily=Times New Roman;fontStyle=1" parent="1" source="-3NE8UHEOBMdapcska96-13" target="-3NE8UHEOBMdapcska96-6" edge="1">
          <mxGeometry width="50" height="50" relative="1" as="geometry">
            <mxPoint x="315" y="-380" as="sourcePoint" />
            <mxPoint x="155" y="-380" as="targetPoint" />
            <Array as="points">
              <mxPoint x="360" y="-380" />
              <mxPoint x="110" y="-380" />
            </Array>
          </mxGeometry>
        </mxCell>
        <mxCell id="RQ7utlBOrTCKG2Yn09IC-9" value="" style="endArrow=classic;html=1;rounded=0;edgeStyle=orthogonalEdgeStyle;strokeColor=#00b0f0;fontSize=12;jumpStyle=arc;fontFamily=Times New Roman;fontStyle=1" parent="1" source="-3NE8UHEOBMdapcska96-6" target="-3NE8UHEOBMdapcska96-13" edge="1">
          <mxGeometry width="50" height="50" relative="1" as="geometry">
            <mxPoint x="110" y="-330" as="sourcePoint" />
            <mxPoint x="270" y="-330" as="targetPoint" />
            <Array as="points">
              <mxPoint x="90" y="-360" />
              <mxPoint x="330" y="-360" />
            </Array>
          </mxGeometry>
        </mxCell>
        <mxCell id="RQ7utlBOrTCKG2Yn09IC-10" value="" style="endArrow=classic;html=1;rounded=0;edgeStyle=orthogonalEdgeStyle;strokeColor=#00b0f0;fontSize=12;jumpStyle=arc;fontFamily=Times New Roman;fontStyle=1" parent="1" source="-3NE8UHEOBMdapcska96-13" target="-3NE8UHEOBMdapcska96-7" edge="1">
          <mxGeometry width="50" height="50" relative="1" as="geometry">
            <mxPoint x="470" y="-370" as="sourcePoint" />
            <mxPoint x="630" y="-370" as="targetPoint" />
            <Array as="points">
              <mxPoint x="440" y="-380" />
              <mxPoint x="690" y="-380" />
            </Array>
          </mxGeometry>
        </mxCell>
        <mxCell id="RQ7utlBOrTCKG2Yn09IC-11" value="" style="endArrow=classic;html=1;rounded=0;edgeStyle=orthogonalEdgeStyle;strokeColor=#00b0f0;fontSize=12;jumpStyle=arc;fontFamily=Times New Roman;fontStyle=1" parent="1" source="-3NE8UHEOBMdapcska96-7" target="-3NE8UHEOBMdapcska96-13" edge="1">
          <mxGeometry width="50" height="50" relative="1" as="geometry">
            <mxPoint x="730" y="-330" as="sourcePoint" />
            <mxPoint x="570" y="-330" as="targetPoint" />
            <Array as="points">
              <mxPoint x="710" y="-360" />
              <mxPoint x="470" y="-360" />
            </Array>
          </mxGeometry>
        </mxCell>
        <mxCell id="RQ7utlBOrTCKG2Yn09IC-12" value="" style="endArrow=classic;html=1;rounded=0;edgeStyle=orthogonalEdgeStyle;strokeColor=#00b0f0;fontSize=12;jumpStyle=arc;fontFamily=Times New Roman;fontStyle=1" parent="1" source="-3NE8UHEOBMdapcska96-13" target="-3NE8UHEOBMdapcska96-1" edge="1">
          <mxGeometry width="50" height="50" relative="1" as="geometry">
            <mxPoint x="-220" y="-680.34" as="sourcePoint" />
            <mxPoint x="-60" y="-680.34" as="targetPoint" />
            <Array as="points">
              <mxPoint x="-40" y="-300" />
              <mxPoint x="-40" y="-690" />
            </Array>
          </mxGeometry>
        </mxCell>
        <mxCell id="RQ7utlBOrTCKG2Yn09IC-15" value="" style="endArrow=classic;html=1;rounded=0;edgeStyle=orthogonalEdgeStyle;strokeColor=#00b0f0;fontSize=12;jumpStyle=arc;fontFamily=Times New Roman;fontStyle=1" parent="1" source="-3NE8UHEOBMdapcska96-13" target="-3NE8UHEOBMdapcska96-5" edge="1">
          <mxGeometry width="50" height="50" relative="1" as="geometry">
            <mxPoint x="980" y="-685" as="sourcePoint" />
            <mxPoint x="820" y="-685" as="targetPoint" />
            <Array as="points">
              <mxPoint x="820" y="-310" />
              <mxPoint x="820" y="-670" />
            </Array>
          </mxGeometry>
        </mxCell>
        <mxCell id="RQ7utlBOrTCKG2Yn09IC-16" value="" style="endArrow=classic;html=1;rounded=0;edgeStyle=orthogonalEdgeStyle;strokeColor=#00b0f0;fontSize=12;jumpStyle=arc;fontFamily=Times New Roman;fontStyle=1" parent="1" source="-3NE8UHEOBMdapcska96-5" target="-3NE8UHEOBMdapcska96-13" edge="1">
          <mxGeometry width="50" height="50" relative="1" as="geometry">
            <mxPoint x="700" y="-280" as="sourcePoint" />
            <mxPoint x="540" y="-280" as="targetPoint" />
            <Array as="points">
              <mxPoint x="840" y="-690" />
              <mxPoint x="840" y="-300" />
            </Array>
          </mxGeometry>
        </mxCell>
      </root>
    </mxGraphModel>
  </diagram>
  <diagram id="KZlmUGVRjV0kbuobpTHH" name="DonHang">
    <mxGraphModel dx="1582" dy="1125" grid="1" gridSize="10" guides="1" tooltips="1" connect="0" arrows="0" fold="1" page="0" pageScale="1" pageWidth="850" pageHeight="1100" math="0" shadow="0">
      <root>
        <mxCell id="0" />
        <mxCell id="1" parent="0" />
        <mxCell id="IbNEPgPfWH6zqGgd78bz-4" value="Khách" style="html=1;dashed=0;whiteSpace=wrap;fontStyle=1;fillColor=#f5f5f5;fontColor=#333333;strokeColor=#00B050;strokeWidth=2;fontFamily=Times New Roman;fontSize=12;" parent="1" vertex="1">
          <mxGeometry x="250" y="-205" width="100" height="50" as="geometry" />
        </mxCell>
        <mxCell id="IbNEPgPfWH6zqGgd78bz-5" value="Nhân viên vận chuyển" style="html=1;dashed=0;whiteSpace=wrap;fontStyle=1;fillColor=#f5f5f5;fontColor=#333333;strokeColor=#7030A0;strokeWidth=2;fontFamily=Times New Roman;fontSize=12;" parent="1" vertex="1">
          <mxGeometry x="-300" y="15" width="100" height="50" as="geometry" />
        </mxCell>
        <mxCell id="IbNEPgPfWH6zqGgd78bz-6" value="Nhân viên kho" style="html=1;dashed=0;whiteSpace=wrap;fontStyle=1;fillColor=#f5f5f5;fontColor=#333333;strokeColor=#FFC000;strokeWidth=2;fontFamily=Times New Roman;fontSize=12;" parent="1" vertex="1">
          <mxGeometry x="-300" y="-185" width="100" height="50" as="geometry" />
        </mxCell>
        <mxCell id="IbNEPgPfWH6zqGgd78bz-7" value="Nhân viên" style="html=1;dashed=0;whiteSpace=wrap;fontStyle=1;fillColor=#f5f5f5;strokeColor=#FF0000;fontColor=#333333;strokeWidth=2;fontFamily=Times New Roman;fontSize=12;" parent="1" vertex="1">
          <mxGeometry x="-30" y="150" width="100" height="50" as="geometry" />
        </mxCell>
        <mxCell id="IbNEPgPfWH6zqGgd78bz-8" value="4&lt;span style=&quot;white-space: pre;&quot;&gt;&#x9;&lt;/span&gt;Hóa đơn bán hàng" style="html=1;dashed=0;whiteSpace=wrap;shape=mxgraph.dfd.dataStoreID;align=left;spacingLeft=8;points=[[0,0],[0.5,0],[1,0],[0,0.5],[1,0.5],[0,1],[0.5,1],[1,1]];fontSize=12;verticalAlign=middle;fillColor=#dae8fc;fontStyle=1;fontFamily=Times New Roman;strokeColor=#6c8ebf;" parent="1" vertex="1">
          <mxGeometry x="-260" y="220" width="140" height="30" as="geometry" />
        </mxCell>
        <mxCell id="IbNEPgPfWH6zqGgd78bz-9" value="5&lt;span style=&quot;white-space: pre; font-size: 12px;&quot;&gt;&#x9;&lt;/span&gt;Danh sách đơn hàng" style="html=1;dashed=0;whiteSpace=wrap;shape=mxgraph.dfd.dataStoreID;align=left;spacingLeft=8;points=[[0,0],[0.5,0],[1,0],[0,0.5],[1,0.5],[0,1],[0.5,1],[1,1]];fontSize=12;verticalAlign=middle;fillColor=#dae8fc;fontStyle=1;fontFamily=Times New Roman;strokeColor=#6c8ebf;" parent="1" vertex="1">
          <mxGeometry x="225" y="160" width="150" height="30" as="geometry" />
        </mxCell>
        <mxCell id="wKW5UU9AdlZFwOLGBagf-1" value="2.1&#xa;&#xa;TẠO ĐƠN HÀNG" style="swimlane;fontStyle=1;childLayout=stackLayout;horizontal=1;startSize=20;fillColor=#bac8d3;horizontalStack=0;resizeParent=1;resizeParentMax=0;resizeLast=0;collapsible=0;marginBottom=0;swimlaneFillColor=#bac8d3;fontSize=12;whiteSpace=wrap;gradientColor=none;rounded=1;glass=0;verticalAlign=top;spacing=-1;fontFamily=Times New Roman;" parent="1" vertex="1">
          <mxGeometry x="-40" y="-200" width="120" height="80" as="geometry" />
        </mxCell>
        <mxCell id="wKW5UU9AdlZFwOLGBagf-2" value="2.2&#xa;&#xa;CHỈNH SỬA ĐƠN HÀNG" style="swimlane;fontStyle=1;childLayout=stackLayout;horizontal=1;startSize=30;fillColor=#bac8d3;horizontalStack=0;resizeParent=1;resizeParentMax=0;resizeLast=0;collapsible=0;marginBottom=0;swimlaneFillColor=#bac8d3;fontSize=12;whiteSpace=wrap;gradientColor=none;rounded=1;glass=0;verticalAlign=top;spacing=-1;fontFamily=Times New Roman;" parent="1" vertex="1">
          <mxGeometry x="240" y="280" width="120" height="80" as="geometry" />
        </mxCell>
        <mxCell id="wKW5UU9AdlZFwOLGBagf-3" value="2.3&#xa;&#xa;HỦY ĐƠN HÀNG" style="swimlane;fontStyle=1;childLayout=stackLayout;horizontal=1;startSize=20;fillColor=#bac8d3;horizontalStack=0;resizeParent=1;resizeParentMax=0;resizeLast=0;collapsible=0;marginBottom=0;swimlaneFillColor=#bac8d3;fontSize=12;whiteSpace=wrap;gradientColor=none;rounded=1;glass=0;verticalAlign=top;spacing=-1;fontFamily=Times New Roman;" parent="1" vertex="1">
          <mxGeometry x="240" width="120" height="80" as="geometry" />
        </mxCell>
        <mxCell id="5tO267scgBYmi9PLmGh5-1" value="3&lt;span style=&quot;white-space: pre; font-size: 12px;&quot;&gt;&#x9;&lt;/span&gt;Danh sách các món ăn" style="html=1;dashed=0;whiteSpace=wrap;shape=mxgraph.dfd.dataStoreID;align=left;spacingLeft=8;points=[[0,0],[0.5,0],[1,0],[0,0.5],[1,0.5],[0,1],[0.5,1],[1,1]];fontSize=12;verticalAlign=middle;fillColor=#dae8fc;fontStyle=1;fontFamily=Times New Roman;strokeColor=#6c8ebf;" parent="1" vertex="1">
          <mxGeometry x="-270" y="295" width="160" height="30" as="geometry" />
        </mxCell>
        <mxCell id="5tO267scgBYmi9PLmGh5-6" value="" style="endArrow=classic;html=1;rounded=0;edgeStyle=orthogonalEdgeStyle;strokeColor=#00b0f0;fontSize=12;jumpStyle=arc;fontFamily=Times New Roman;fontStyle=1" parent="1" source="wKW5UU9AdlZFwOLGBagf-1" target="IbNEPgPfWH6zqGgd78bz-8" edge="1">
          <mxGeometry width="50" height="50" relative="1" as="geometry">
            <mxPoint x="-10" y="-195" as="sourcePoint" />
            <mxPoint x="-270" y="140" as="targetPoint" />
            <Array as="points">
              <mxPoint x="-10" y="-220" />
              <mxPoint x="-320" y="-220" />
              <mxPoint x="-320" y="235" />
            </Array>
          </mxGeometry>
        </mxCell>
        <mxCell id="5tO267scgBYmi9PLmGh5-8" value="" style="endArrow=classic;html=1;rounded=0;edgeStyle=orthogonalEdgeStyle;strokeColor=#FF0000;fontSize=12;jumpStyle=arc;fontFamily=Times New Roman;fontStyle=1" parent="1" source="IbNEPgPfWH6zqGgd78bz-7" target="wKW5UU9AdlZFwOLGBagf-1" edge="1">
          <mxGeometry width="50" height="50" relative="1" as="geometry">
            <mxPoint x="300" y="140" as="sourcePoint" />
            <mxPoint x="60" y="140" as="targetPoint" />
            <Array as="points">
              <mxPoint />
              <mxPoint x="190" />
              <mxPoint x="190" y="-150" />
            </Array>
          </mxGeometry>
        </mxCell>
        <mxCell id="5tO267scgBYmi9PLmGh5-9" value="" style="endArrow=classic;html=1;rounded=0;edgeStyle=orthogonalEdgeStyle;strokeColor=#FF0000;fontSize=12;jumpStyle=arc;fontFamily=Times New Roman;fontStyle=1" parent="1" source="wKW5UU9AdlZFwOLGBagf-1" target="IbNEPgPfWH6zqGgd78bz-7" edge="1">
          <mxGeometry width="50" height="50" relative="1" as="geometry">
            <mxPoint x="-70" y="50" as="sourcePoint" />
            <mxPoint x="30" y="160" as="targetPoint" />
            <Array as="points">
              <mxPoint x="170" y="-130" />
              <mxPoint x="170" y="-20" />
              <mxPoint x="-20" y="-20" />
            </Array>
          </mxGeometry>
        </mxCell>
        <mxCell id="5tO267scgBYmi9PLmGh5-10" value="Thông tin đơn hàng" style="text;html=1;align=center;verticalAlign=middle;resizable=0;points=[];autosize=1;strokeColor=none;fillColor=none;fontSize=12;fontStyle=1;rotation=0;" parent="1" vertex="1">
          <mxGeometry x="15" y="-45" width="140" height="30" as="geometry" />
        </mxCell>
        <mxCell id="5tO267scgBYmi9PLmGh5-11" value="Thông tin hóa đơn" style="text;html=1;align=center;verticalAlign=middle;resizable=0;points=[];autosize=1;strokeColor=none;fillColor=none;fontSize=12;fontStyle=1;rotation=0;" parent="1" vertex="1">
          <mxGeometry x="35" y="-25" width="130" height="30" as="geometry" />
        </mxCell>
        <mxCell id="5tO267scgBYmi9PLmGh5-12" value="" style="endArrow=classic;html=1;rounded=0;edgeStyle=orthogonalEdgeStyle;strokeColor=#FF0000;fontSize=12;jumpStyle=arc;fontFamily=Times New Roman;fontStyle=1" parent="1" source="wKW5UU9AdlZFwOLGBagf-3" target="IbNEPgPfWH6zqGgd78bz-7" edge="1">
          <mxGeometry width="50" height="50" relative="1" as="geometry">
            <mxPoint x="300" y="250" as="sourcePoint" />
            <mxPoint x="110" y="150" as="targetPoint" />
            <Array as="points">
              <mxPoint x="20" y="20" />
            </Array>
          </mxGeometry>
        </mxCell>
        <mxCell id="5tO267scgBYmi9PLmGh5-13" value="" style="endArrow=classic;html=1;rounded=0;edgeStyle=orthogonalEdgeStyle;strokeColor=#FF0000;fontSize=12;jumpStyle=arc;fontFamily=Times New Roman;fontStyle=1" parent="1" source="IbNEPgPfWH6zqGgd78bz-7" target="wKW5UU9AdlZFwOLGBagf-3" edge="1">
          <mxGeometry width="50" height="50" relative="1" as="geometry">
            <mxPoint x="50" y="160" as="sourcePoint" />
            <mxPoint x="130" y="40" as="targetPoint" />
            <Array as="points">
              <mxPoint x="40" y="40" />
            </Array>
          </mxGeometry>
        </mxCell>
        <mxCell id="5tO267scgBYmi9PLmGh5-14" value="" style="endArrow=classic;html=1;rounded=0;edgeStyle=orthogonalEdgeStyle;strokeColor=#FF0000;fontSize=12;jumpStyle=arc;fontFamily=Times New Roman;fontStyle=1" parent="1" source="IbNEPgPfWH6zqGgd78bz-7" target="wKW5UU9AdlZFwOLGBagf-3" edge="1">
          <mxGeometry width="50" height="50" relative="1" as="geometry">
            <mxPoint x="50" y="160" as="sourcePoint" />
            <mxPoint x="250" y="50" as="targetPoint" />
            <Array as="points">
              <mxPoint x="60" y="60" />
            </Array>
          </mxGeometry>
        </mxCell>
        <mxCell id="5tO267scgBYmi9PLmGh5-15" value="Thông tin tra cứu đơn hàng" style="text;html=1;align=center;verticalAlign=middle;resizable=0;points=[];autosize=1;strokeColor=none;fillColor=none;fontSize=12;fontStyle=1" parent="1" vertex="1">
          <mxGeometry x="54" y="35" width="180" height="30" as="geometry" />
        </mxCell>
        <mxCell id="5tO267scgBYmi9PLmGh5-16" value="Danh sách sau khi hủy" style="text;html=1;align=center;verticalAlign=middle;resizable=0;points=[];autosize=1;strokeColor=none;fillColor=none;fontSize=12;fontStyle=1" parent="1" vertex="1">
          <mxGeometry x="65" y="15" width="150" height="30" as="geometry" />
        </mxCell>
        <mxCell id="eFrzpiN2BAT9XzzCEuam-1" value="Kết quả tra cứu thông tin đơn hàng" style="text;html=1;align=center;verticalAlign=middle;resizable=0;points=[];autosize=1;strokeColor=none;fillColor=none;fontSize=12;fontStyle=1" parent="1" vertex="1">
          <mxGeometry x="14" y="-5" width="230" height="30" as="geometry" />
        </mxCell>
        <mxCell id="eFrzpiN2BAT9XzzCEuam-3" value="" style="endArrow=classic;html=1;rounded=0;edgeStyle=orthogonalEdgeStyle;strokeColor=#FF0000;fontSize=12;jumpStyle=arc;fontFamily=Times New Roman;fontStyle=1" parent="1" source="IbNEPgPfWH6zqGgd78bz-7" target="wKW5UU9AdlZFwOLGBagf-2" edge="1">
          <mxGeometry width="50" height="50" relative="1" as="geometry">
            <mxPoint x="15" y="295" as="sourcePoint" />
            <mxPoint x="205" y="395" as="targetPoint" />
            <Array as="points">
              <mxPoint x="20" y="320" />
            </Array>
          </mxGeometry>
        </mxCell>
        <mxCell id="eFrzpiN2BAT9XzzCEuam-4" value="" style="endArrow=classic;html=1;rounded=0;edgeStyle=orthogonalEdgeStyle;strokeColor=#FF0000;fontSize=12;jumpStyle=arc;fontFamily=Times New Roman;fontStyle=1" parent="1" source="IbNEPgPfWH6zqGgd78bz-7" target="wKW5UU9AdlZFwOLGBagf-2" edge="1">
          <mxGeometry width="50" height="50" relative="1" as="geometry">
            <mxPoint x="30" y="210" as="sourcePoint" />
            <mxPoint x="250" y="305" as="targetPoint" />
            <Array as="points">
              <mxPoint x="40" y="300" />
            </Array>
          </mxGeometry>
        </mxCell>
        <mxCell id="eFrzpiN2BAT9XzzCEuam-5" value="" style="endArrow=classic;html=1;rounded=0;edgeStyle=orthogonalEdgeStyle;strokeColor=#FF0000;fontSize=12;jumpStyle=arc;fontFamily=Times New Roman;fontStyle=1" parent="1" source="wKW5UU9AdlZFwOLGBagf-2" target="IbNEPgPfWH6zqGgd78bz-7" edge="1">
          <mxGeometry width="50" height="50" relative="1" as="geometry">
            <mxPoint x="250" y="340" as="sourcePoint" />
            <mxPoint x="30" y="210" as="targetPoint" />
            <Array as="points">
              <mxPoint y="340" />
            </Array>
          </mxGeometry>
        </mxCell>
        <mxCell id="eFrzpiN2BAT9XzzCEuam-6" value="Kết quả tra cứu thông tin đơn hàng" style="text;html=1;align=center;verticalAlign=middle;resizable=0;points=[];autosize=1;strokeColor=none;fillColor=none;fontSize=12;fontStyle=1" parent="1" vertex="1">
          <mxGeometry x="10" y="315" width="230" height="30" as="geometry" />
        </mxCell>
        <mxCell id="eFrzpiN2BAT9XzzCEuam-7" value="Thông tin tra cứu đơn hàng" style="text;html=1;align=center;verticalAlign=middle;resizable=0;points=[];autosize=1;strokeColor=none;fillColor=none;fontSize=12;fontStyle=1" parent="1" vertex="1">
          <mxGeometry x="45" y="275" width="180" height="30" as="geometry" />
        </mxCell>
        <mxCell id="lwWuVCg6HPEKLdcE1UoB-1" value="Thông tin mới của đơn hàng" style="text;html=1;align=center;verticalAlign=middle;resizable=0;points=[];autosize=1;strokeColor=none;fillColor=none;fontSize=12;fontStyle=1" parent="1" vertex="1">
          <mxGeometry x="40" y="295" width="190" height="30" as="geometry" />
        </mxCell>
        <mxCell id="lwWuVCg6HPEKLdcE1UoB-9" value="" style="endArrow=classic;html=1;rounded=0;edgeStyle=orthogonalEdgeStyle;strokeColor=#7030A0;fontSize=12;jumpStyle=arc;fontFamily=Times New Roman;fontStyle=1" parent="1" source="IbNEPgPfWH6zqGgd78bz-5" target="wKW5UU9AdlZFwOLGBagf-1" edge="1">
          <mxGeometry width="50" height="50" relative="1" as="geometry">
            <mxPoint x="-370" y="199.99999999999994" as="sourcePoint" />
            <mxPoint x="-90" y="-45" as="targetPoint" />
            <Array as="points">
              <mxPoint x="-270" y="-100" />
              <mxPoint x="-20" y="-100" />
            </Array>
          </mxGeometry>
        </mxCell>
        <mxCell id="lwWuVCg6HPEKLdcE1UoB-10" value="" style="endArrow=classic;html=1;rounded=0;edgeStyle=orthogonalEdgeStyle;strokeColor=#00B050;fontSize=12;jumpStyle=arc;fontFamily=Times New Roman;fontStyle=1;movable=1;resizable=1;rotatable=1;deletable=1;editable=1;locked=0;connectable=1;" parent="1" source="wKW5UU9AdlZFwOLGBagf-1" target="IbNEPgPfWH6zqGgd78bz-4" edge="1">
          <mxGeometry width="50" height="50" relative="1" as="geometry">
            <mxPoint x="20" y="-215.05999999999995" as="sourcePoint" />
            <mxPoint x="350" y="-230.05999999999995" as="targetPoint" />
            <Array as="points">
              <mxPoint x="190" y="-190" />
              <mxPoint x="190" y="-190" />
            </Array>
          </mxGeometry>
        </mxCell>
        <mxCell id="lwWuVCg6HPEKLdcE1UoB-11" value="" style="endArrow=classic;html=1;rounded=0;edgeStyle=orthogonalEdgeStyle;strokeColor=#7030A0;fontSize=12;jumpStyle=arc;fontFamily=Times New Roman;fontStyle=1" parent="1" source="wKW5UU9AdlZFwOLGBagf-1" target="IbNEPgPfWH6zqGgd78bz-5" edge="1">
          <mxGeometry width="50" height="50" relative="1" as="geometry">
            <mxPoint x="-30" y="-150" as="sourcePoint" />
            <mxPoint x="-190" y="-150" as="targetPoint" />
            <Array as="points">
              <mxPoint y="-80" />
              <mxPoint x="-250" y="-80" />
            </Array>
          </mxGeometry>
        </mxCell>
        <mxCell id="lwWuVCg6HPEKLdcE1UoB-12" value="Trạng thái đơn hàng" style="text;html=1;align=center;verticalAlign=middle;resizable=0;points=[];autosize=1;strokeColor=none;fillColor=none;fontSize=12;fontStyle=1" parent="1" vertex="1">
          <mxGeometry x="-210" y="-125" width="140" height="30" as="geometry" />
        </mxCell>
        <mxCell id="lwWuVCg6HPEKLdcE1UoB-13" value="Bản sao hóa đơn" style="text;html=1;align=center;verticalAlign=middle;resizable=0;points=[];autosize=1;strokeColor=none;fillColor=none;fontSize=12;fontStyle=1" parent="1" vertex="1">
          <mxGeometry x="-200" y="-105" width="120" height="30" as="geometry" />
        </mxCell>
        <mxCell id="lwWuVCg6HPEKLdcE1UoB-14" value="" style="endArrow=classic;html=1;rounded=0;edgeStyle=orthogonalEdgeStyle;strokeColor=#00B050;fontSize=12;jumpStyle=arc;fontFamily=Times New Roman;fontStyle=1;movable=1;resizable=1;rotatable=1;deletable=1;editable=1;locked=0;connectable=1;" parent="1" source="IbNEPgPfWH6zqGgd78bz-4" target="wKW5UU9AdlZFwOLGBagf-1" edge="1">
          <mxGeometry width="50" height="50" relative="1" as="geometry">
            <mxPoint x="260" y="-160" as="sourcePoint" />
            <mxPoint x="90" y="-160" as="targetPoint" />
            <Array as="points">
              <mxPoint x="170" y="-170" />
              <mxPoint x="170" y="-170" />
            </Array>
          </mxGeometry>
        </mxCell>
        <mxCell id="lwWuVCg6HPEKLdcE1UoB-15" value="Hóa đơn" style="text;html=1;align=center;verticalAlign=middle;resizable=0;points=[];autosize=1;strokeColor=none;fillColor=none;fontSize=12;fontStyle=1" parent="1" vertex="1">
          <mxGeometry x="125" y="-215" width="70" height="30" as="geometry" />
        </mxCell>
        <mxCell id="lwWuVCg6HPEKLdcE1UoB-16" value="Thông tin đơn hàng" style="text;html=1;align=center;verticalAlign=middle;resizable=0;points=[];autosize=1;strokeColor=none;fillColor=none;fontSize=12;fontStyle=1" parent="1" vertex="1">
          <mxGeometry x="95" y="-195" width="140" height="30" as="geometry" />
        </mxCell>
        <mxCell id="lwWuVCg6HPEKLdcE1UoB-17" value="" style="endArrow=classic;html=1;rounded=0;edgeStyle=orthogonalEdgeStyle;strokeColor=#FFC000;fontSize=12;jumpStyle=arc;fontFamily=Times New Roman;fontStyle=1" parent="1" source="IbNEPgPfWH6zqGgd78bz-6" target="wKW5UU9AdlZFwOLGBagf-1" edge="1">
          <mxGeometry width="50" height="50" relative="1" as="geometry">
            <mxPoint x="-210" y="-220" as="sourcePoint" />
            <mxPoint x="-10" y="-250" as="targetPoint" />
            <Array as="points">
              <mxPoint x="-120" y="-170" />
              <mxPoint x="-120" y="-170" />
            </Array>
          </mxGeometry>
        </mxCell>
        <mxCell id="lwWuVCg6HPEKLdcE1UoB-18" value="Bản sao hóa đơn" style="text;html=1;align=center;verticalAlign=middle;resizable=0;points=[];autosize=1;strokeColor=none;fillColor=none;fontSize=12;fontStyle=1;rotation=0;" parent="1" vertex="1">
          <mxGeometry x="-180" y="-175" width="120" height="30" as="geometry" />
        </mxCell>
        <mxCell id="lwWuVCg6HPEKLdcE1UoB-19" value="Thông tin tồn kho" style="text;html=1;align=center;verticalAlign=middle;resizable=0;points=[];autosize=1;strokeColor=none;fillColor=none;fontSize=12;fontStyle=1;rotation=0;" parent="1" vertex="1">
          <mxGeometry x="-180" y="-195" width="120" height="30" as="geometry" />
        </mxCell>
        <mxCell id="lwWuVCg6HPEKLdcE1UoB-20" value="" style="endArrow=classic;html=1;rounded=0;edgeStyle=orthogonalEdgeStyle;strokeColor=#FFC000;fontSize=12;jumpStyle=arc;fontFamily=Times New Roman;fontStyle=1" parent="1" source="wKW5UU9AdlZFwOLGBagf-1" target="IbNEPgPfWH6zqGgd78bz-6" edge="1">
          <mxGeometry width="50" height="50" relative="1" as="geometry">
            <mxPoint x="-30" y="-160" as="sourcePoint" />
            <mxPoint x="-190" y="-160" as="targetPoint" />
            <Array as="points">
              <mxPoint x="-120" y="-150" />
              <mxPoint x="-120" y="-150" />
            </Array>
          </mxGeometry>
        </mxCell>
        <mxCell id="lwWuVCg6HPEKLdcE1UoB-22" value="" style="endArrow=classic;html=1;rounded=0;edgeStyle=orthogonalEdgeStyle;strokeColor=#00b0f0;fontSize=12;jumpStyle=arc;fontFamily=Times New Roman;fontStyle=1" parent="1" source="IbNEPgPfWH6zqGgd78bz-9" target="wKW5UU9AdlZFwOLGBagf-3" edge="1">
          <mxGeometry width="50" height="50" relative="1" as="geometry">
            <mxPoint x="350" y="130" as="sourcePoint" />
            <mxPoint x="110" y="130" as="targetPoint" />
            <Array as="points">
              <mxPoint x="290" y="120" />
              <mxPoint x="290" y="120" />
            </Array>
          </mxGeometry>
        </mxCell>
        <mxCell id="lwWuVCg6HPEKLdcE1UoB-23" value="" style="endArrow=classic;html=1;rounded=0;edgeStyle=orthogonalEdgeStyle;strokeColor=#00b0f0;fontSize=12;jumpStyle=arc;fontFamily=Times New Roman;fontStyle=1" parent="1" source="5tO267scgBYmi9PLmGh5-1" target="wKW5UU9AdlZFwOLGBagf-1" edge="1">
          <mxGeometry width="50" height="50" relative="1" as="geometry">
            <mxPoint x="10" y="-290" as="sourcePoint" />
            <mxPoint x="30" y="-195" as="targetPoint" />
            <Array as="points">
              <mxPoint x="-330" y="310" />
              <mxPoint x="-330" y="-230" />
              <mxPoint x="10" y="-230" />
            </Array>
          </mxGeometry>
        </mxCell>
        <mxCell id="lwWuVCg6HPEKLdcE1UoB-24" value="" style="endArrow=classic;html=1;rounded=0;edgeStyle=orthogonalEdgeStyle;strokeColor=#00b0f0;fontSize=12;jumpStyle=arc;fontFamily=Times New Roman;fontStyle=1" parent="1" source="wKW5UU9AdlZFwOLGBagf-1" target="IbNEPgPfWH6zqGgd78bz-9" edge="1">
          <mxGeometry width="50" height="50" relative="1" as="geometry">
            <mxPoint x="180" y="-230" as="sourcePoint" />
            <mxPoint x="420" y="-230" as="targetPoint" />
            <Array as="points">
              <mxPoint x="50" y="-229" />
              <mxPoint x="390" y="-229" />
              <mxPoint x="390" y="175" />
            </Array>
          </mxGeometry>
        </mxCell>
        <mxCell id="lwWuVCg6HPEKLdcE1UoB-25" value="" style="endArrow=classic;html=1;rounded=0;edgeStyle=orthogonalEdgeStyle;strokeColor=#00b0f0;fontSize=12;jumpStyle=arc;fontFamily=Times New Roman;fontStyle=1" parent="1" source="wKW5UU9AdlZFwOLGBagf-3" target="IbNEPgPfWH6zqGgd78bz-9" edge="1">
          <mxGeometry width="50" height="50" relative="1" as="geometry">
            <mxPoint x="280" y="90" as="sourcePoint" />
            <mxPoint x="280" y="170" as="targetPoint" />
            <Array as="points">
              <mxPoint x="310" y="120" />
              <mxPoint x="310" y="120" />
            </Array>
          </mxGeometry>
        </mxCell>
        <mxCell id="lwWuVCg6HPEKLdcE1UoB-26" value="" style="endArrow=classic;html=1;rounded=0;edgeStyle=orthogonalEdgeStyle;strokeColor=#00b0f0;fontSize=12;jumpStyle=arc;fontFamily=Times New Roman;fontStyle=1" parent="1" source="IbNEPgPfWH6zqGgd78bz-9" target="wKW5UU9AdlZFwOLGBagf-2" edge="1">
          <mxGeometry width="50" height="50" relative="1" as="geometry">
            <mxPoint x="290" y="200" as="sourcePoint" />
            <mxPoint x="290" y="280" as="targetPoint" />
            <Array as="points">
              <mxPoint x="290" y="230" />
              <mxPoint x="290" y="230" />
            </Array>
          </mxGeometry>
        </mxCell>
        <mxCell id="lwWuVCg6HPEKLdcE1UoB-27" value="" style="endArrow=classic;html=1;rounded=0;edgeStyle=orthogonalEdgeStyle;strokeColor=#00b0f0;fontSize=12;jumpStyle=arc;fontFamily=Times New Roman;fontStyle=1" parent="1" source="wKW5UU9AdlZFwOLGBagf-2" target="IbNEPgPfWH6zqGgd78bz-9" edge="1">
          <mxGeometry width="50" height="50" relative="1" as="geometry">
            <mxPoint x="300" y="290" as="sourcePoint" />
            <mxPoint x="300" y="200" as="targetPoint" />
            <Array as="points">
              <mxPoint x="310" y="240" />
              <mxPoint x="310" y="240" />
            </Array>
          </mxGeometry>
        </mxCell>
        <mxCell id="si69f3QskDyJJwkWCo21-1" value="" style="endArrow=classic;html=1;rounded=0;edgeStyle=orthogonalEdgeStyle;strokeColor=#7030A0;fontSize=12;jumpStyle=arc;fontFamily=Times New Roman;fontStyle=1" parent="1" source="IbNEPgPfWH6zqGgd78bz-5" target="wKW5UU9AdlZFwOLGBagf-1" edge="1">
          <mxGeometry width="50" height="50" relative="1" as="geometry">
            <mxPoint x="-230" y="25" as="sourcePoint" />
            <mxPoint x="20" y="-110" as="targetPoint" />
            <Array as="points">
              <mxPoint x="-230" y="-60" />
              <mxPoint x="20" y="-60" />
            </Array>
          </mxGeometry>
        </mxCell>
        <mxCell id="si69f3QskDyJJwkWCo21-2" value="Xác nhận giao hàng" style="text;html=1;align=center;verticalAlign=middle;resizable=0;points=[];autosize=1;strokeColor=none;fillColor=none;fontSize=12;fontStyle=1" parent="1" vertex="1">
          <mxGeometry x="-200" y="-85" width="140" height="30" as="geometry" />
        </mxCell>
        <mxCell id="olMTnxbWyJlk8E_54uoD-1" value="1&lt;span style=&quot;white-space: pre; font-size: 12px;&quot;&gt;&#x9;&lt;/span&gt;Danh sách thông tin khách hàng" style="html=1;dashed=0;whiteSpace=wrap;shape=mxgraph.dfd.dataStoreID;align=left;spacingLeft=8;points=[[0,0],[0.5,0],[1,0],[0,0.5],[1,0.5],[0,1],[0.5,1],[1,1]];fontSize=12;verticalAlign=middle;fillColor=#dae8fc;fontStyle=1;fontFamily=Times New Roman;strokeColor=#6c8ebf;" parent="1" vertex="1">
          <mxGeometry x="-70" y="-290" width="210" height="30" as="geometry" />
        </mxCell>
        <mxCell id="olMTnxbWyJlk8E_54uoD-2" value="" style="endArrow=classic;html=1;rounded=0;edgeStyle=orthogonalEdgeStyle;strokeColor=#00b0f0;fontSize=12;jumpStyle=arc;fontFamily=Times New Roman;fontStyle=1" parent="1" source="olMTnxbWyJlk8E_54uoD-1" target="wKW5UU9AdlZFwOLGBagf-1" edge="1">
          <mxGeometry width="50" height="50" relative="1" as="geometry">
            <mxPoint x="60" y="-190" as="sourcePoint" />
            <mxPoint x="385" y="185" as="targetPoint" />
            <Array as="points">
              <mxPoint x="30" y="-240" />
              <mxPoint x="30" y="-240" />
            </Array>
          </mxGeometry>
        </mxCell>
        <mxCell id="CBoQZXWdrDmDtVXX-_ni-1" value="10&lt;span style=&quot;white-space: pre; font-size: 12px;&quot;&gt;&#x9;&lt;/span&gt;&amp;nbsp;Danh sách ưu đãi, khuyến mãi" style="html=1;dashed=0;whiteSpace=wrap;shape=mxgraph.dfd.dataStoreID;align=left;spacingLeft=8;points=[[0,0],[0.5,0],[1,0],[0,0.5],[1,0.5],[0,1],[0.5,1],[1,1]];fontSize=12;verticalAlign=middle;fillColor=#dae8fc;fontStyle=1;fontFamily=Times New Roman;strokeColor=#6c8ebf;" vertex="1" parent="1">
          <mxGeometry x="-260" y="100" width="200" height="30" as="geometry" />
        </mxCell>
        <mxCell id="CBoQZXWdrDmDtVXX-_ni-2" value="" style="endArrow=classic;html=1;rounded=0;edgeStyle=orthogonalEdgeStyle;strokeColor=#00b0f0;fontSize=12;jumpStyle=arc;fontFamily=Times New Roman;fontStyle=1" edge="1" parent="1" source="CBoQZXWdrDmDtVXX-_ni-1" target="wKW5UU9AdlZFwOLGBagf-1">
          <mxGeometry width="50" height="50" relative="1" as="geometry">
            <mxPoint x="40" y="-250" as="sourcePoint" />
            <mxPoint x="40" y="-190" as="targetPoint" />
            <Array as="points">
              <mxPoint x="-110" y="-40" />
              <mxPoint x="50" y="-40" />
            </Array>
          </mxGeometry>
        </mxCell>
      </root>
    </mxGraphModel>
  </diagram>
  <diagram id="bkdBCHAGuMch4n7O4OFT" name="TonKho">
    <mxGraphModel dx="1834" dy="1286" grid="1" gridSize="10" guides="1" tooltips="1" connect="0" arrows="0" fold="1" page="0" pageScale="1" pageWidth="850" pageHeight="1100" math="0" shadow="0">
      <root>
        <mxCell id="0" />
        <mxCell id="1" parent="0" />
        <mxCell id="a7CgfD6gLtfGal2P0kAP-1" value="3.2&#xa;&#xa;CHỈNH SỬA THÔNG TIN NGUYÊN VẬT LIỆU" style="swimlane;fontStyle=1;childLayout=stackLayout;horizontal=1;startSize=20;fillColor=#bac8d3;horizontalStack=0;resizeParent=1;resizeParentMax=0;resizeLast=0;collapsible=0;marginBottom=0;swimlaneFillColor=#bac8d3;fontSize=12;whiteSpace=wrap;gradientColor=none;rounded=1;glass=0;verticalAlign=top;spacing=-1;fontFamily=Times New Roman;" parent="1" vertex="1">
          <mxGeometry x="120" y="-80" width="120" height="80" as="geometry" />
        </mxCell>
        <mxCell id="YgM7Mh_GW1I_zWfFEaxO-1" value="Nhân viên kho" style="html=1;dashed=0;whiteSpace=wrap;fontStyle=1;fillColor=#f5f5f5;fontColor=#333333;strokeColor=#FFC000;strokeWidth=2;fontFamily=Times New Roman;fontSize=12;" parent="1" vertex="1">
          <mxGeometry x="-180" y="-65" width="100" height="50" as="geometry" />
        </mxCell>
        <mxCell id="YgM7Mh_GW1I_zWfFEaxO-2" value="3.1&#xa;&#xa;THÊM NGUYÊN VẬT LIỆU" style="swimlane;fontStyle=1;childLayout=stackLayout;horizontal=1;startSize=20;fillColor=#bac8d3;horizontalStack=0;resizeParent=1;resizeParentMax=0;resizeLast=0;collapsible=0;marginBottom=0;swimlaneFillColor=#bac8d3;fontSize=12;whiteSpace=wrap;gradientColor=none;rounded=1;glass=0;verticalAlign=top;spacing=-1;fontFamily=Times New Roman;" parent="1" vertex="1">
          <mxGeometry x="120" y="-240" width="120" height="80" as="geometry" />
        </mxCell>
        <mxCell id="YgM7Mh_GW1I_zWfFEaxO-3" value="3.3&#xa;&#xa;XÓA NGUYÊN VẬT LIỆU" style="swimlane;fontStyle=1;childLayout=stackLayout;horizontal=1;startSize=20;fillColor=#bac8d3;horizontalStack=0;resizeParent=1;resizeParentMax=0;resizeLast=0;collapsible=0;marginBottom=0;swimlaneFillColor=#bac8d3;fontSize=12;whiteSpace=wrap;gradientColor=none;rounded=1;glass=0;verticalAlign=top;spacing=-1;fontFamily=Times New Roman;" parent="1" vertex="1">
          <mxGeometry x="120" y="80" width="120" height="80" as="geometry" />
        </mxCell>
        <mxCell id="YgM7Mh_GW1I_zWfFEaxO-5" value="7&lt;span style=&quot;white-space: pre; font-size: 12px;&quot;&gt;&#x9;&lt;/span&gt;Kho nguyên vật liệu" style="html=1;dashed=0;whiteSpace=wrap;shape=mxgraph.dfd.dataStoreID;align=left;spacingLeft=8;points=[[0,0],[0.5,0],[1,0],[0,0.5],[1,0.5],[0,1],[0.5,1],[1,1]];fontSize=12;verticalAlign=middle;fillColor=#dae8fc;fontStyle=1;fontFamily=Times New Roman;strokeColor=#6c8ebf;" parent="1" vertex="1">
          <mxGeometry x="360" y="30" width="150" height="30" as="geometry" />
        </mxCell>
        <mxCell id="YgM7Mh_GW1I_zWfFEaxO-6" value="" style="endArrow=classic;html=1;rounded=0;edgeStyle=orthogonalEdgeStyle;strokeColor=#FFC000;fontSize=12;jumpStyle=arc;fontFamily=Times New Roman;fontStyle=1" parent="1" source="YgM7Mh_GW1I_zWfFEaxO-1" target="YgM7Mh_GW1I_zWfFEaxO-2" edge="1">
          <mxGeometry width="50" height="50" relative="1" as="geometry">
            <mxPoint x="-100" y="-110" as="sourcePoint" />
            <mxPoint x="-20" y="-270" as="targetPoint" />
            <Array as="points">
              <mxPoint x="-150" y="-220" />
            </Array>
          </mxGeometry>
        </mxCell>
        <mxCell id="YgM7Mh_GW1I_zWfFEaxO-8" value="" style="endArrow=classic;html=1;rounded=0;edgeStyle=orthogonalEdgeStyle;strokeColor=#FFC000;fontSize=12;jumpStyle=arc;fontFamily=Times New Roman;fontStyle=1" parent="1" source="YgM7Mh_GW1I_zWfFEaxO-1" target="YgM7Mh_GW1I_zWfFEaxO-2" edge="1">
          <mxGeometry width="50" height="50" relative="1" as="geometry">
            <mxPoint x="-90" y="-55" as="sourcePoint" />
            <mxPoint x="130" y="-210" as="targetPoint" />
            <Array as="points">
              <mxPoint x="-130" y="-200" />
            </Array>
          </mxGeometry>
        </mxCell>
        <mxCell id="XuLyXvoTBYYpkDh_EuPX-1" value="Thông tin nhập hàng" style="text;html=1;align=center;verticalAlign=middle;resizable=0;points=[];autosize=1;strokeColor=none;fillColor=none;fontSize=12;fontStyle=1" parent="1" vertex="1">
          <mxGeometry x="-80" y="-245" width="140" height="30" as="geometry" />
        </mxCell>
        <mxCell id="XuLyXvoTBYYpkDh_EuPX-2" value="Thông tin nguyên vật liệu" style="text;html=1;align=center;verticalAlign=middle;resizable=0;points=[];autosize=1;strokeColor=none;fillColor=none;fontSize=12;fontStyle=1" parent="1" vertex="1">
          <mxGeometry x="-90" y="-225" width="170" height="30" as="geometry" />
        </mxCell>
        <mxCell id="XuLyXvoTBYYpkDh_EuPX-3" value="" style="endArrow=classic;html=1;rounded=0;edgeStyle=orthogonalEdgeStyle;strokeColor=#00b0f0;fontSize=12;jumpStyle=arc;fontFamily=Times New Roman;fontStyle=1" parent="1" source="YgM7Mh_GW1I_zWfFEaxO-2" target="YgM7Mh_GW1I_zWfFEaxO-5" edge="1">
          <mxGeometry width="50" height="50" relative="1" as="geometry">
            <mxPoint x="250" y="-190" as="sourcePoint" />
            <mxPoint x="445" y="-130" as="targetPoint" />
            <Array as="points">
              <mxPoint x="180" y="-100" />
              <mxPoint x="470" y="-100" />
            </Array>
          </mxGeometry>
        </mxCell>
        <mxCell id="XuLyXvoTBYYpkDh_EuPX-4" value="" style="endArrow=classic;html=1;rounded=0;edgeStyle=orthogonalEdgeStyle;strokeColor=#00b0f0;fontSize=12;jumpStyle=arc;fontFamily=Times New Roman;fontStyle=1" parent="1" source="a7CgfD6gLtfGal2P0kAP-1" target="YgM7Mh_GW1I_zWfFEaxO-5" edge="1">
          <mxGeometry width="50" height="50" relative="1" as="geometry">
            <mxPoint x="230" y="-50" as="sourcePoint" />
            <mxPoint x="425" y="10" as="targetPoint" />
            <Array as="points">
              <mxPoint x="440" y="-50" />
            </Array>
          </mxGeometry>
        </mxCell>
        <mxCell id="XuLyXvoTBYYpkDh_EuPX-5" value="" style="endArrow=classic;html=1;rounded=0;edgeStyle=orthogonalEdgeStyle;strokeColor=#00b0f0;fontSize=12;jumpStyle=arc;fontFamily=Times New Roman;fontStyle=1;" parent="1" source="YgM7Mh_GW1I_zWfFEaxO-5" target="a7CgfD6gLtfGal2P0kAP-1" edge="1">
          <mxGeometry width="50" height="50" relative="1" as="geometry">
            <mxPoint x="445" y="40" as="sourcePoint" />
            <mxPoint x="250" y="-30" as="targetPoint" />
            <Array as="points">
              <mxPoint x="410" y="-30" />
            </Array>
          </mxGeometry>
        </mxCell>
        <mxCell id="XuLyXvoTBYYpkDh_EuPX-7" value="" style="endArrow=classic;html=1;rounded=0;edgeStyle=orthogonalEdgeStyle;strokeColor=#FFC000;fontSize=12;jumpStyle=arc;fontFamily=Times New Roman;fontStyle=1" parent="1" source="YgM7Mh_GW1I_zWfFEaxO-1" target="a7CgfD6gLtfGal2P0kAP-1" edge="1">
          <mxGeometry width="50" height="50" relative="1" as="geometry">
            <mxPoint x="-70" y="145" as="sourcePoint" />
            <mxPoint x="130" y="10" as="targetPoint" />
            <Array as="points">
              <mxPoint x="40" y="-60" />
              <mxPoint x="40" y="-60" />
            </Array>
          </mxGeometry>
        </mxCell>
        <mxCell id="XuLyXvoTBYYpkDh_EuPX-8" value="" style="endArrow=classic;html=1;rounded=0;edgeStyle=orthogonalEdgeStyle;strokeColor=#FFC000;fontSize=12;jumpStyle=arc;fontFamily=Times New Roman;fontStyle=1" parent="1" source="a7CgfD6gLtfGal2P0kAP-1" target="YgM7Mh_GW1I_zWfFEaxO-1" edge="1">
          <mxGeometry width="50" height="50" relative="1" as="geometry">
            <mxPoint x="130" y="-40" as="sourcePoint" />
            <mxPoint y="-40" as="targetPoint" />
            <Array as="points" />
          </mxGeometry>
        </mxCell>
        <mxCell id="XuLyXvoTBYYpkDh_EuPX-9" value="" style="endArrow=classic;html=1;rounded=0;edgeStyle=orthogonalEdgeStyle;strokeColor=#FFC000;fontSize=12;jumpStyle=arc;fontFamily=Times New Roman;fontStyle=1" parent="1" source="YgM7Mh_GW1I_zWfFEaxO-1" target="a7CgfD6gLtfGal2P0kAP-1" edge="1">
          <mxGeometry width="50" height="50" relative="1" as="geometry">
            <mxPoint y="-30" as="sourcePoint" />
            <mxPoint x="130" y="-30" as="targetPoint" />
            <Array as="points">
              <mxPoint x="40" y="-20" />
              <mxPoint x="40" y="-20" />
            </Array>
          </mxGeometry>
        </mxCell>
        <mxCell id="vK36XT1lTb-HztB0MUNW-1" value="" style="endArrow=classic;html=1;rounded=0;edgeStyle=orthogonalEdgeStyle;strokeColor=#FFC000;fontSize=12;jumpStyle=arc;fontFamily=Times New Roman;fontStyle=1" parent="1" source="YgM7Mh_GW1I_zWfFEaxO-1" target="YgM7Mh_GW1I_zWfFEaxO-3" edge="1">
          <mxGeometry width="50" height="50" relative="1" as="geometry">
            <mxPoint x="-170" y="70.06" as="sourcePoint" />
            <mxPoint x="30" y="70.06" as="targetPoint" />
            <Array as="points">
              <mxPoint x="-150" y="140" />
            </Array>
          </mxGeometry>
        </mxCell>
        <mxCell id="pdw13Dmx3MCPiQXvbkDr-1" value="Thông tin tra cứu nguyên vật liệu" style="text;html=1;align=center;verticalAlign=middle;resizable=0;points=[];autosize=1;strokeColor=none;fillColor=none;fontSize=12;fontStyle=1" parent="1" vertex="1">
          <mxGeometry x="-85" y="-85" width="210" height="30" as="geometry" />
        </mxCell>
        <mxCell id="pdw13Dmx3MCPiQXvbkDr-2" value="Kết quả tra cứu nguyên vật liệu" style="text;html=1;align=center;verticalAlign=middle;resizable=0;points=[];autosize=1;strokeColor=none;fillColor=none;fontSize=12;fontStyle=1" parent="1" vertex="1">
          <mxGeometry x="-80" y="-65" width="200" height="30" as="geometry" />
        </mxCell>
        <mxCell id="OqQVlbqAxYmKP_N7PJRw-1" value="Thông tin mới của nguyên vật liệu" style="text;html=1;align=center;verticalAlign=middle;resizable=0;points=[];autosize=1;strokeColor=none;fillColor=none;fontSize=12;fontStyle=1" parent="1" vertex="1">
          <mxGeometry x="-90" y="-45" width="220" height="30" as="geometry" />
        </mxCell>
        <mxCell id="OqQVlbqAxYmKP_N7PJRw-2" value="" style="endArrow=classic;html=1;rounded=0;edgeStyle=orthogonalEdgeStyle;strokeColor=#FFC000;fontSize=12;jumpStyle=arc;fontFamily=Times New Roman;fontStyle=1" parent="1" source="YgM7Mh_GW1I_zWfFEaxO-2" target="YgM7Mh_GW1I_zWfFEaxO-1" edge="1">
          <mxGeometry width="50" height="50" relative="1" as="geometry">
            <mxPoint x="130" y="-190" as="sourcePoint" />
            <mxPoint x="-110" y="-55" as="targetPoint" />
            <Array as="points">
              <mxPoint x="-110" y="-180" />
            </Array>
          </mxGeometry>
        </mxCell>
        <mxCell id="OqQVlbqAxYmKP_N7PJRw-3" value="Thông báo số lượng tồn kho" style="text;html=1;align=center;verticalAlign=middle;resizable=0;points=[];autosize=1;strokeColor=none;fillColor=none;fontSize=12;fontStyle=1" parent="1" vertex="1">
          <mxGeometry x="-105" y="-205" width="190" height="30" as="geometry" />
        </mxCell>
        <mxCell id="OqQVlbqAxYmKP_N7PJRw-5" value="" style="endArrow=classic;html=1;rounded=0;edgeStyle=orthogonalEdgeStyle;strokeColor=#FFC000;fontSize=12;jumpStyle=arc;fontFamily=Times New Roman;fontStyle=1" parent="1" source="YgM7Mh_GW1I_zWfFEaxO-3" target="YgM7Mh_GW1I_zWfFEaxO-1" edge="1">
          <mxGeometry width="50" height="50" relative="1" as="geometry">
            <mxPoint x="130" y="150" as="sourcePoint" />
            <mxPoint x="-140" y="-5" as="targetPoint" />
            <Array as="points">
              <mxPoint x="-130" y="120" />
            </Array>
          </mxGeometry>
        </mxCell>
        <mxCell id="OqQVlbqAxYmKP_N7PJRw-6" value="" style="endArrow=classic;html=1;rounded=0;edgeStyle=orthogonalEdgeStyle;strokeColor=#FFC000;fontSize=12;jumpStyle=arc;fontFamily=Times New Roman;fontStyle=1" parent="1" source="YgM7Mh_GW1I_zWfFEaxO-1" target="YgM7Mh_GW1I_zWfFEaxO-3" edge="1">
          <mxGeometry width="50" height="50" relative="1" as="geometry">
            <mxPoint x="-120" y="-5" as="sourcePoint" />
            <mxPoint x="130" y="130" as="targetPoint" />
            <Array as="points">
              <mxPoint x="-110" y="100" />
            </Array>
          </mxGeometry>
        </mxCell>
        <mxCell id="OqQVlbqAxYmKP_N7PJRw-7" value="Thông tin tra cứu nguyên vật liệu" style="text;html=1;align=center;verticalAlign=middle;resizable=0;points=[];autosize=1;strokeColor=none;fillColor=none;fontSize=12;fontStyle=1" parent="1" vertex="1">
          <mxGeometry x="-105" y="75" width="210" height="30" as="geometry" />
        </mxCell>
        <mxCell id="OqQVlbqAxYmKP_N7PJRw-8" value="Kết quả tra cứu nguyên vật liệu" style="text;html=1;align=center;verticalAlign=middle;resizable=0;points=[];autosize=1;strokeColor=none;fillColor=none;fontSize=12;fontStyle=1" parent="1" vertex="1">
          <mxGeometry x="-100" y="95" width="200" height="30" as="geometry" />
        </mxCell>
        <mxCell id="OqQVlbqAxYmKP_N7PJRw-9" value="Danh sách sau khi xóa" style="text;html=1;align=center;verticalAlign=middle;resizable=0;points=[];autosize=1;strokeColor=none;fillColor=none;fontSize=12;fontStyle=1" parent="1" vertex="1">
          <mxGeometry x="-85" y="115" width="150" height="30" as="geometry" />
        </mxCell>
        <mxCell id="ukKIoTM0AF9cuN6-Bcey-1" value="" style="endArrow=classic;html=1;rounded=0;edgeStyle=orthogonalEdgeStyle;strokeColor=#00b0f0;fontSize=12;jumpStyle=arc;fontFamily=Times New Roman;fontStyle=1;" parent="1" source="YgM7Mh_GW1I_zWfFEaxO-3" target="YgM7Mh_GW1I_zWfFEaxO-5" edge="1">
          <mxGeometry width="50" height="50" relative="1" as="geometry">
            <mxPoint x="430" y="165.03" as="sourcePoint" />
            <mxPoint x="260" y="105.03" as="targetPoint" />
            <Array as="points">
              <mxPoint x="420" y="110" />
            </Array>
          </mxGeometry>
        </mxCell>
        <mxCell id="ukKIoTM0AF9cuN6-Bcey-2" value="" style="endArrow=classic;html=1;rounded=0;edgeStyle=orthogonalEdgeStyle;strokeColor=#00b0f0;fontSize=12;jumpStyle=arc;fontFamily=Times New Roman;fontStyle=1;" parent="1" source="YgM7Mh_GW1I_zWfFEaxO-5" target="YgM7Mh_GW1I_zWfFEaxO-3" edge="1">
          <mxGeometry width="50" height="50" relative="1" as="geometry">
            <mxPoint x="440" y="70" as="sourcePoint" />
            <mxPoint x="250" y="115" as="targetPoint" />
            <Array as="points">
              <mxPoint x="450" y="130" />
            </Array>
          </mxGeometry>
        </mxCell>
        <mxCell id="CaWCq1Rq1kSjMqLWkfv--1" value="3&lt;span style=&quot;white-space: pre; font-size: 12px;&quot;&gt;&#x9;&lt;/span&gt;Danh sách các món ăn" style="html=1;dashed=0;whiteSpace=wrap;shape=mxgraph.dfd.dataStoreID;align=left;spacingLeft=8;points=[[0,0],[0.5,0],[1,0],[0,0.5],[1,0.5],[0,1],[0.5,1],[1,1]];fontSize=12;verticalAlign=middle;fillColor=#dae8fc;fontStyle=1;fontFamily=Times New Roman;strokeColor=#6c8ebf;" parent="1" vertex="1">
          <mxGeometry x="370" y="-215" width="160" height="30" as="geometry" />
        </mxCell>
        <mxCell id="CaWCq1Rq1kSjMqLWkfv--2" value="" style="endArrow=classic;html=1;rounded=0;edgeStyle=orthogonalEdgeStyle;strokeColor=#00b0f0;fontSize=12;jumpStyle=arc;fontFamily=Times New Roman;fontStyle=1" parent="1" source="YgM7Mh_GW1I_zWfFEaxO-2" target="CaWCq1Rq1kSjMqLWkfv--1" edge="1">
          <mxGeometry width="50" height="50" relative="1" as="geometry">
            <mxPoint x="250" y="-190" as="sourcePoint" />
            <mxPoint x="410" y="-190" as="targetPoint" />
            <Array as="points">
              <mxPoint x="450" y="-200" />
            </Array>
          </mxGeometry>
        </mxCell>
      </root>
    </mxGraphModel>
  </diagram>
  <diagram id="vrMfl-PvP0xZlD-uGL4Y" name="NhanVien">
    <mxGraphModel dx="1450" dy="1071" grid="1" gridSize="10" guides="1" tooltips="1" connect="0" arrows="0" fold="1" page="0" pageScale="1" pageWidth="850" pageHeight="1100" math="0" shadow="0">
      <root>
        <mxCell id="0" />
        <mxCell id="1" parent="0" />
        <mxCell id="fZyztvi5U-Ubj1aW4zxL-1" value="4.1&#xa;&#xa;THÊM NHÂN VIÊN" style="swimlane;fontStyle=1;childLayout=stackLayout;horizontal=1;startSize=20;fillColor=#bac8d3;horizontalStack=0;resizeParent=1;resizeParentMax=0;resizeLast=0;collapsible=0;marginBottom=0;swimlaneFillColor=#bac8d3;fontSize=12;whiteSpace=wrap;gradientColor=none;rounded=1;glass=0;verticalAlign=top;spacing=-1;fontFamily=Times New Roman;" parent="1" vertex="1">
          <mxGeometry x="-220" y="280" width="120" height="80" as="geometry" />
        </mxCell>
        <mxCell id="fZyztvi5U-Ubj1aW4zxL-2" value="4.2&#xa;&#xa;CHỈNH SỬA THÔNG TIN NHÂN VIÊN" style="swimlane;fontStyle=1;childLayout=stackLayout;horizontal=1;startSize=20;fillColor=#bac8d3;horizontalStack=0;resizeParent=1;resizeParentMax=0;resizeLast=0;collapsible=0;marginBottom=0;swimlaneFillColor=#bac8d3;fontSize=12;whiteSpace=wrap;gradientColor=none;rounded=1;glass=0;verticalAlign=top;spacing=-1;fontFamily=Times New Roman;" parent="1" vertex="1">
          <mxGeometry x="460" y="280" width="120" height="80" as="geometry" />
        </mxCell>
        <mxCell id="fZyztvi5U-Ubj1aW4zxL-3" value="4.3&#xa;&#xa;XÓA NHÂN VIÊN" style="swimlane;fontStyle=1;childLayout=stackLayout;horizontal=1;startSize=20;fillColor=#bac8d3;horizontalStack=0;resizeParent=1;resizeParentMax=0;resizeLast=0;collapsible=0;marginBottom=0;swimlaneFillColor=#bac8d3;fontSize=12;whiteSpace=wrap;gradientColor=none;rounded=1;glass=0;verticalAlign=top;spacing=-1;fontFamily=Times New Roman;" parent="1" vertex="1">
          <mxGeometry x="-220" y="560" width="120" height="80" as="geometry" />
        </mxCell>
        <mxCell id="fZyztvi5U-Ubj1aW4zxL-4" value="4.4&#xa;&#xa;  QUẢN LÝ LỊCH LÀM VIỆC" style="swimlane;fontStyle=1;childLayout=stackLayout;horizontal=1;startSize=20;fillColor=#bac8d3;horizontalStack=0;resizeParent=1;resizeParentMax=0;resizeLast=0;collapsible=0;marginBottom=0;swimlaneFillColor=#bac8d3;fontSize=12;whiteSpace=wrap;gradientColor=none;rounded=1;glass=0;verticalAlign=top;spacing=-1;fontFamily=Times New Roman;" parent="1" vertex="1">
          <mxGeometry x="460" y="560" width="120" height="80" as="geometry" />
        </mxCell>
        <mxCell id="fZyztvi5U-Ubj1aW4zxL-6" value="NHÂN VIÊN" style="html=1;dashed=0;whiteSpace=wrap;fontStyle=1;fillColor=#f5f5f5;strokeColor=#FF0000;fontColor=#333333;strokeWidth=2;fontFamily=Times New Roman;fontSize=15;" parent="1" vertex="1">
          <mxGeometry x="-240" y="40" width="160" height="80" as="geometry" />
        </mxCell>
        <mxCell id="fZyztvi5U-Ubj1aW4zxL-7" value="&amp;nbsp;NHÂN VIÊN QUẢN LÝ" style="html=1;dashed=0;whiteSpace=wrap;fontStyle=1;fillColor=#f5f5f5;fontColor=#333333;strokeColor=#4472C4;strokeWidth=2;fontFamily=Times New Roman;fontSize=15;" parent="1" vertex="1">
          <mxGeometry x="100" y="420" width="160" height="80" as="geometry" />
        </mxCell>
        <mxCell id="fZyztvi5U-Ubj1aW4zxL-8" value="8&lt;span style=&quot;white-space: pre;&quot;&gt;&#x9;&lt;/span&gt;Danh sách thông tin nhân viên" style="html=1;dashed=0;whiteSpace=wrap;shape=mxgraph.dfd.dataStoreID;align=left;spacingLeft=8;points=[[0,0],[0.5,0],[1,0],[0,0.5],[1,0.5],[0,1],[0.5,1],[1,1]];fontSize=12;verticalAlign=middle;fillColor=#dae8fc;fontStyle=1;fontFamily=Times New Roman;strokeColor=#6c8ebf;" parent="1" vertex="1">
          <mxGeometry x="-10" y="120" width="200" height="30" as="geometry" />
        </mxCell>
        <mxCell id="fZyztvi5U-Ubj1aW4zxL-9" value="9&lt;span style=&quot;white-space: pre;&quot;&gt;&#x9;&lt;/span&gt;Danh sách tài khoản nhân viên" style="html=1;dashed=0;whiteSpace=wrap;shape=mxgraph.dfd.dataStoreID;align=left;spacingLeft=8;points=[[0,0],[0.5,0],[1,0],[0,0.5],[1,0.5],[0,1],[0.5,1],[1,1]];fontSize=12;verticalAlign=middle;fillColor=#dae8fc;fontStyle=1;fontFamily=Times New Roman;strokeColor=#6c8ebf;" parent="1" vertex="1">
          <mxGeometry x="235.5" y="120" width="200" height="30" as="geometry" />
        </mxCell>
        <mxCell id="fZyztvi5U-Ubj1aW4zxL-10" value="" style="endArrow=classic;html=1;rounded=0;edgeStyle=orthogonalEdgeStyle;strokeColor=#FF0000;fontSize=15;jumpStyle=arc;fontFamily=Times New Roman;fontStyle=1" parent="1" source="fZyztvi5U-Ubj1aW4zxL-6" target="fZyztvi5U-Ubj1aW4zxL-1" edge="1">
          <mxGeometry width="50" height="50" relative="1" as="geometry">
            <mxPoint y="160" as="sourcePoint" />
            <mxPoint x="-240" y="160" as="targetPoint" />
            <Array as="points">
              <mxPoint x="-200" y="210" />
              <mxPoint x="-200" y="210" />
            </Array>
          </mxGeometry>
        </mxCell>
        <mxCell id="fZyztvi5U-Ubj1aW4zxL-12" value="" style="endArrow=classic;html=1;rounded=0;edgeStyle=orthogonalEdgeStyle;strokeColor=#00b0f0;fontSize=15;jumpStyle=arc;fontFamily=Times New Roman;fontStyle=1" parent="1" source="fZyztvi5U-Ubj1aW4zxL-3" target="fZyztvi5U-Ubj1aW4zxL-8" edge="1">
          <mxGeometry width="50" height="50" relative="1" as="geometry">
            <mxPoint x="-220" y="615" as="sourcePoint" />
            <mxPoint x="-420" y="615" as="targetPoint" />
            <Array as="points">
              <mxPoint x="-370" y="610" />
              <mxPoint x="-370" y="-80" />
              <mxPoint x="110" y="-80" />
            </Array>
          </mxGeometry>
        </mxCell>
        <mxCell id="ANHw4Y8MgQnfS-Jq7P2v-1" value="" style="endArrow=classic;html=1;rounded=0;edgeStyle=orthogonalEdgeStyle;strokeColor=#FF0000;fontSize=15;jumpStyle=arc;fontFamily=Times New Roman;fontStyle=1" parent="1" source="fZyztvi5U-Ubj1aW4zxL-1" target="fZyztvi5U-Ubj1aW4zxL-6" edge="1">
          <mxGeometry width="50" height="50" relative="1" as="geometry">
            <mxPoint x="80" y="200" as="sourcePoint" />
            <mxPoint x="-160" y="200" as="targetPoint" />
            <Array as="points">
              <mxPoint x="-120" y="200" />
              <mxPoint x="-120" y="200" />
            </Array>
          </mxGeometry>
        </mxCell>
        <mxCell id="JdwqZB8F5oWxfD6kiYWm-1" value="Tài khoản nhân viên" style="text;html=1;align=center;verticalAlign=middle;resizable=0;points=[];autosize=1;strokeColor=none;fillColor=none;fontSize=12;fontStyle=1" parent="1" vertex="1">
          <mxGeometry x="-190" y="230" width="140" height="30" as="geometry" />
        </mxCell>
        <mxCell id="JdwqZB8F5oWxfD6kiYWm-2" value="Thông tin nhân viên" style="text;html=1;align=center;verticalAlign=middle;resizable=0;points=[];autosize=1;strokeColor=none;fillColor=none;fontSize=12;fontStyle=1" parent="1" vertex="1">
          <mxGeometry x="-270" y="140" width="140" height="30" as="geometry" />
        </mxCell>
        <mxCell id="lufHTRpU85PW84twpTvW-1" value="17&lt;span style=&quot;white-space: pre;&quot;&gt;&#x9;&lt;/span&gt;Danh sách lịch làm việc" style="html=1;dashed=0;whiteSpace=wrap;shape=mxgraph.dfd.dataStoreID;align=left;spacingLeft=8;points=[[0,0],[0.5,0],[1,0],[0,0.5],[1,0.5],[0,1],[0.5,1],[1,1]];fontSize=12;verticalAlign=middle;fillColor=#dae8fc;fontStyle=1;labelBackgroundColor=none;fontFamily=Times New Roman;strokeColor=#6c8ebf;" parent="1" vertex="1">
          <mxGeometry x="435.5" y="430" width="169" height="30" as="geometry" />
        </mxCell>
        <mxCell id="373vyQzeU6BeogZ77B6K-1" value="" style="endArrow=classic;html=1;rounded=0;edgeStyle=orthogonalEdgeStyle;strokeColor=#4472C4;fontSize=15;jumpStyle=arc;fontFamily=Times New Roman;fontStyle=1" parent="1" source="fZyztvi5U-Ubj1aW4zxL-1" target="fZyztvi5U-Ubj1aW4zxL-7" edge="1">
          <mxGeometry width="50" height="50" relative="1" as="geometry">
            <mxPoint x="10" y="370" as="sourcePoint" />
            <mxPoint x="210" y="370" as="targetPoint" />
            <Array as="points">
              <mxPoint x="140" y="320" />
            </Array>
          </mxGeometry>
        </mxCell>
        <mxCell id="373vyQzeU6BeogZ77B6K-2" value="" style="endArrow=classic;html=1;rounded=0;edgeStyle=orthogonalEdgeStyle;strokeColor=#4472C4;fontSize=15;jumpStyle=arc;fontFamily=Times New Roman;fontStyle=1;" parent="1" source="fZyztvi5U-Ubj1aW4zxL-7" target="fZyztvi5U-Ubj1aW4zxL-1" edge="1">
          <mxGeometry width="50" height="50" relative="1" as="geometry">
            <mxPoint x="180" y="440" as="sourcePoint" />
            <mxPoint x="-100" y="320" as="targetPoint" />
            <Array as="points">
              <mxPoint x="120" y="340" />
            </Array>
          </mxGeometry>
        </mxCell>
        <mxCell id="373vyQzeU6BeogZ77B6K-3" value="Thông tin nhân viên" style="text;html=1;align=center;verticalAlign=middle;resizable=0;points=[];autosize=1;strokeColor=none;fillColor=none;fontSize=12;fontStyle=1" parent="1" vertex="1">
          <mxGeometry x="-60" y="295" width="140" height="30" as="geometry" />
        </mxCell>
        <mxCell id="373vyQzeU6BeogZ77B6K-4" value="Thông tin tài khoản nhân viên" style="text;html=1;align=center;verticalAlign=middle;resizable=0;points=[];autosize=1;strokeColor=none;fillColor=none;fontSize=12;fontStyle=1" parent="1" vertex="1">
          <mxGeometry x="-85" y="315" width="190" height="30" as="geometry" />
        </mxCell>
        <mxCell id="373vyQzeU6BeogZ77B6K-5" value="" style="endArrow=classic;html=1;rounded=0;edgeStyle=orthogonalEdgeStyle;strokeColor=#4472C4;fontSize=15;jumpStyle=arc;fontFamily=Times New Roman;fontStyle=1;" parent="1" source="fZyztvi5U-Ubj1aW4zxL-7" target="fZyztvi5U-Ubj1aW4zxL-3" edge="1">
          <mxGeometry width="50" height="50" relative="1" as="geometry">
            <mxPoint x="-80" y="510" as="sourcePoint" />
            <mxPoint x="140" y="590" as="targetPoint" />
            <Array as="points">
              <mxPoint x="120" y="580" />
            </Array>
          </mxGeometry>
        </mxCell>
        <mxCell id="373vyQzeU6BeogZ77B6K-6" value="" style="endArrow=classic;html=1;rounded=0;edgeStyle=orthogonalEdgeStyle;strokeColor=#4472C4;fontSize=15;jumpStyle=arc;fontFamily=Times New Roman;fontStyle=1;" parent="1" source="fZyztvi5U-Ubj1aW4zxL-3" target="fZyztvi5U-Ubj1aW4zxL-7" edge="1">
          <mxGeometry width="50" height="50" relative="1" as="geometry">
            <mxPoint x="-90" y="590" as="sourcePoint" />
            <mxPoint x="130" y="510" as="targetPoint" />
            <Array as="points">
              <mxPoint x="140" y="600" />
            </Array>
          </mxGeometry>
        </mxCell>
        <mxCell id="373vyQzeU6BeogZ77B6K-7" value="" style="endArrow=classic;html=1;rounded=0;edgeStyle=orthogonalEdgeStyle;strokeColor=#4472C4;fontSize=15;jumpStyle=arc;fontFamily=Times New Roman;fontStyle=1;" parent="1" source="fZyztvi5U-Ubj1aW4zxL-7" target="fZyztvi5U-Ubj1aW4zxL-3" edge="1">
          <mxGeometry width="50" height="50" relative="1" as="geometry">
            <mxPoint x="150" y="510" as="sourcePoint" />
            <mxPoint x="-90" y="610" as="targetPoint" />
            <Array as="points">
              <mxPoint x="160" y="620" />
            </Array>
          </mxGeometry>
        </mxCell>
        <mxCell id="373vyQzeU6BeogZ77B6K-8" value="Thông tin tra cứu tài khoản NV" style="text;html=1;align=center;verticalAlign=middle;resizable=0;points=[];autosize=1;strokeColor=none;fillColor=none;fontSize=12;fontStyle=1" parent="1" vertex="1">
          <mxGeometry x="-85" y="555" width="200" height="30" as="geometry" />
        </mxCell>
        <mxCell id="373vyQzeU6BeogZ77B6K-9" value="Kết quả tra cứu thông tin TKNV" style="text;html=1;align=center;verticalAlign=middle;resizable=0;points=[];autosize=1;strokeColor=none;fillColor=none;fontSize=12;fontStyle=1" parent="1" vertex="1">
          <mxGeometry x="-80" y="576" width="200" height="30" as="geometry" />
        </mxCell>
        <mxCell id="373vyQzeU6BeogZ77B6K-10" value="Danh sách sau khi xóa" style="text;html=1;align=center;verticalAlign=middle;resizable=0;points=[];autosize=1;strokeColor=none;fillColor=none;fontSize=12;fontStyle=1" parent="1" vertex="1">
          <mxGeometry x="-45" y="596" width="150" height="30" as="geometry" />
        </mxCell>
        <mxCell id="373vyQzeU6BeogZ77B6K-11" value="" style="endArrow=classic;html=1;rounded=0;edgeStyle=orthogonalEdgeStyle;strokeColor=#4472C4;fontSize=15;jumpStyle=arc;fontFamily=Times New Roman;fontStyle=1" parent="1" source="fZyztvi5U-Ubj1aW4zxL-7" target="fZyztvi5U-Ubj1aW4zxL-2" edge="1">
          <mxGeometry width="50" height="50" relative="1" as="geometry">
            <mxPoint x="150" y="295" as="sourcePoint" />
            <mxPoint x="390" y="395" as="targetPoint" />
            <Array as="points">
              <mxPoint x="240" y="340" />
            </Array>
          </mxGeometry>
        </mxCell>
        <mxCell id="373vyQzeU6BeogZ77B6K-12" value="" style="endArrow=classic;html=1;rounded=0;edgeStyle=orthogonalEdgeStyle;strokeColor=#4472C4;fontSize=15;jumpStyle=arc;fontFamily=Times New Roman;fontStyle=1" parent="1" source="fZyztvi5U-Ubj1aW4zxL-2" target="fZyztvi5U-Ubj1aW4zxL-7" edge="1">
          <mxGeometry width="50" height="50" relative="1" as="geometry">
            <mxPoint x="450" y="325" as="sourcePoint" />
            <mxPoint x="230" y="405" as="targetPoint" />
            <Array as="points">
              <mxPoint x="220" y="320" />
            </Array>
          </mxGeometry>
        </mxCell>
        <mxCell id="373vyQzeU6BeogZ77B6K-13" value="" style="endArrow=classic;html=1;rounded=0;edgeStyle=orthogonalEdgeStyle;strokeColor=#4472C4;fontSize=15;jumpStyle=arc;fontFamily=Times New Roman;fontStyle=1" parent="1" source="fZyztvi5U-Ubj1aW4zxL-7" target="fZyztvi5U-Ubj1aW4zxL-2" edge="1">
          <mxGeometry width="50" height="50" relative="1" as="geometry">
            <mxPoint x="230" y="430" as="sourcePoint" />
            <mxPoint x="470" y="330" as="targetPoint" />
            <Array as="points">
              <mxPoint x="200" y="300" />
            </Array>
          </mxGeometry>
        </mxCell>
        <mxCell id="373vyQzeU6BeogZ77B6K-14" value="Thông tin tra cứu nhân viên" style="text;html=1;align=center;verticalAlign=middle;resizable=0;points=[];autosize=1;strokeColor=none;fillColor=none;fontSize=12;fontStyle=1" parent="1" vertex="1">
          <mxGeometry x="230" y="276" width="180" height="30" as="geometry" />
        </mxCell>
        <mxCell id="373vyQzeU6BeogZ77B6K-15" value="Kết quả tra cứu nhân viên" style="text;html=1;align=center;verticalAlign=middle;resizable=0;points=[];autosize=1;strokeColor=none;fillColor=none;fontSize=12;fontStyle=1" parent="1" vertex="1">
          <mxGeometry x="240" y="297" width="170" height="30" as="geometry" />
        </mxCell>
        <mxCell id="373vyQzeU6BeogZ77B6K-16" value="Thông tin mới của nhân viên" style="text;html=1;align=center;verticalAlign=middle;resizable=0;points=[];autosize=1;strokeColor=none;fillColor=none;fontSize=12;fontStyle=1" parent="1" vertex="1">
          <mxGeometry x="235" y="315" width="190" height="30" as="geometry" />
        </mxCell>
        <mxCell id="373vyQzeU6BeogZ77B6K-17" value="" style="endArrow=classic;html=1;rounded=0;edgeStyle=orthogonalEdgeStyle;strokeColor=#4472C4;fontSize=15;jumpStyle=arc;fontFamily=Times New Roman;fontStyle=1;" parent="1" source="fZyztvi5U-Ubj1aW4zxL-7" target="fZyztvi5U-Ubj1aW4zxL-4" edge="1">
          <mxGeometry width="50" height="50" relative="1" as="geometry">
            <mxPoint x="250" y="620" as="sourcePoint" />
            <mxPoint x="470" y="540" as="targetPoint" />
            <Array as="points">
              <mxPoint x="240" y="570" />
            </Array>
          </mxGeometry>
        </mxCell>
        <mxCell id="373vyQzeU6BeogZ77B6K-18" value="" style="endArrow=classic;html=1;rounded=0;edgeStyle=orthogonalEdgeStyle;strokeColor=#4472C4;fontSize=15;jumpStyle=arc;fontFamily=Times New Roman;fontStyle=1;" parent="1" source="fZyztvi5U-Ubj1aW4zxL-7" target="fZyztvi5U-Ubj1aW4zxL-4" edge="1">
          <mxGeometry width="50" height="50" relative="1" as="geometry">
            <mxPoint x="250" y="510" as="sourcePoint" />
            <mxPoint x="470" y="580" as="targetPoint" />
            <Array as="points">
              <mxPoint x="220" y="590" />
            </Array>
          </mxGeometry>
        </mxCell>
        <mxCell id="373vyQzeU6BeogZ77B6K-19" value="" style="endArrow=classic;html=1;rounded=0;edgeStyle=orthogonalEdgeStyle;strokeColor=#4472C4;fontSize=15;jumpStyle=arc;fontFamily=Times New Roman;fontStyle=1;" parent="1" source="fZyztvi5U-Ubj1aW4zxL-7" target="fZyztvi5U-Ubj1aW4zxL-4" edge="1">
          <mxGeometry width="50" height="50" relative="1" as="geometry">
            <mxPoint x="240" y="510" as="sourcePoint" />
            <mxPoint x="470" y="600" as="targetPoint" />
            <Array as="points">
              <mxPoint x="200" y="610" />
            </Array>
          </mxGeometry>
        </mxCell>
        <mxCell id="373vyQzeU6BeogZ77B6K-20" value="" style="endArrow=classic;html=1;rounded=0;edgeStyle=orthogonalEdgeStyle;strokeColor=#4472C4;fontSize=15;jumpStyle=arc;fontFamily=Times New Roman;fontStyle=1;" parent="1" source="fZyztvi5U-Ubj1aW4zxL-4" target="fZyztvi5U-Ubj1aW4zxL-7" edge="1">
          <mxGeometry width="50" height="50" relative="1" as="geometry">
            <mxPoint x="470" y="620" as="sourcePoint" />
            <mxPoint x="230" y="510" as="targetPoint" />
            <Array as="points">
              <mxPoint x="180" y="630" />
            </Array>
          </mxGeometry>
        </mxCell>
        <mxCell id="373vyQzeU6BeogZ77B6K-21" value="Thông tin lịch làm việc của nhân viên" style="text;html=1;align=center;verticalAlign=middle;resizable=0;points=[];autosize=1;strokeColor=none;fillColor=none;fontSize=12;fontStyle=1" parent="1" vertex="1">
          <mxGeometry x="230" y="546" width="240" height="30" as="geometry" />
        </mxCell>
        <mxCell id="373vyQzeU6BeogZ77B6K-24" value="Thông tin tra cứu lịch làm việc nhân viên" style="text;html=1;align=center;verticalAlign=middle;resizable=0;points=[];autosize=1;strokeColor=none;fillColor=none;fontSize=12;fontStyle=1" parent="1" vertex="1">
          <mxGeometry x="210" y="565" width="260" height="30" as="geometry" />
        </mxCell>
        <mxCell id="373vyQzeU6BeogZ77B6K-25" value="Thông tin lịch làm việc mới của nhân viên" style="text;html=1;align=center;verticalAlign=middle;resizable=0;points=[];autosize=1;strokeColor=none;fillColor=none;fontSize=12;fontStyle=1" parent="1" vertex="1">
          <mxGeometry x="195" y="585" width="260" height="30" as="geometry" />
        </mxCell>
        <mxCell id="373vyQzeU6BeogZ77B6K-26" value="Kết quả tra cứu lịch làm việc nhân viên" style="text;html=1;align=center;verticalAlign=middle;resizable=0;points=[];autosize=1;strokeColor=none;fillColor=none;fontSize=12;fontStyle=1" parent="1" vertex="1">
          <mxGeometry x="200" y="606" width="250" height="30" as="geometry" />
        </mxCell>
        <mxCell id="373vyQzeU6BeogZ77B6K-27" value="" style="endArrow=classic;html=1;rounded=0;edgeStyle=orthogonalEdgeStyle;strokeColor=#00b0f0;fontSize=15;jumpStyle=arc;fontFamily=Times New Roman;fontStyle=1" parent="1" source="fZyztvi5U-Ubj1aW4zxL-4" target="lufHTRpU85PW84twpTvW-1" edge="1">
          <mxGeometry width="50" height="50" relative="1" as="geometry">
            <mxPoint x="400" y="494.40999999999997" as="sourcePoint" />
            <mxPoint x="600" y="494.40999999999997" as="targetPoint" />
            <Array as="points">
              <mxPoint x="510" y="510" />
              <mxPoint x="510" y="510" />
            </Array>
          </mxGeometry>
        </mxCell>
        <mxCell id="373vyQzeU6BeogZ77B6K-28" value="" style="endArrow=classic;html=1;rounded=0;edgeStyle=orthogonalEdgeStyle;strokeColor=#00b0f0;fontSize=15;jumpStyle=arc;fontFamily=Times New Roman;fontStyle=1" parent="1" source="lufHTRpU85PW84twpTvW-1" target="fZyztvi5U-Ubj1aW4zxL-4" edge="1">
          <mxGeometry width="50" height="50" relative="1" as="geometry">
            <mxPoint x="520" y="470" as="sourcePoint" />
            <mxPoint x="530" y="580" as="targetPoint" />
            <Array as="points">
              <mxPoint x="530" y="510" />
              <mxPoint x="530" y="510" />
            </Array>
          </mxGeometry>
        </mxCell>
        <mxCell id="373vyQzeU6BeogZ77B6K-29" value="" style="endArrow=classic;html=1;rounded=0;edgeStyle=orthogonalEdgeStyle;strokeColor=#00b0f0;fontSize=15;jumpStyle=arc;fontFamily=Times New Roman;fontStyle=1" parent="1" source="fZyztvi5U-Ubj1aW4zxL-8" target="fZyztvi5U-Ubj1aW4zxL-1" edge="1">
          <mxGeometry width="50" height="50" relative="1" as="geometry">
            <mxPoint x="-430" y="390.06" as="sourcePoint" />
            <mxPoint x="-230" y="390.06" as="targetPoint" />
            <Array as="points">
              <mxPoint x="20" y="20" />
              <mxPoint x="-270" y="20" />
              <mxPoint x="-270" y="290" />
            </Array>
          </mxGeometry>
        </mxCell>
        <mxCell id="373vyQzeU6BeogZ77B6K-30" value="" style="endArrow=classic;html=1;rounded=0;edgeStyle=orthogonalEdgeStyle;strokeColor=#00b0f0;fontSize=15;jumpStyle=arc;fontFamily=Times New Roman;fontStyle=1" parent="1" source="fZyztvi5U-Ubj1aW4zxL-1" target="fZyztvi5U-Ubj1aW4zxL-8" edge="1">
          <mxGeometry width="50" height="50" relative="1" as="geometry">
            <mxPoint x="-210" y="300" as="sourcePoint" />
            <mxPoint x="100" y="180" as="targetPoint" />
            <Array as="points">
              <mxPoint x="-290" y="310" />
              <mxPoint x="-290" />
              <mxPoint x="40" />
            </Array>
          </mxGeometry>
        </mxCell>
        <mxCell id="373vyQzeU6BeogZ77B6K-31" value="" style="endArrow=classic;html=1;rounded=0;edgeStyle=orthogonalEdgeStyle;strokeColor=#00b0f0;fontSize=15;jumpStyle=arc;fontFamily=Times New Roman;fontStyle=1" parent="1" source="fZyztvi5U-Ubj1aW4zxL-1" target="fZyztvi5U-Ubj1aW4zxL-9" edge="1">
          <mxGeometry width="50" height="50" relative="1" as="geometry">
            <mxPoint x="-210" y="320" as="sourcePoint" />
            <mxPoint x="120" y="180" as="targetPoint" />
            <Array as="points">
              <mxPoint x="-310" y="330" />
              <mxPoint x="-310" y="-20" />
              <mxPoint x="310" y="-20" />
            </Array>
          </mxGeometry>
        </mxCell>
        <mxCell id="373vyQzeU6BeogZ77B6K-32" value="" style="endArrow=classic;html=1;rounded=0;edgeStyle=orthogonalEdgeStyle;strokeColor=#00b0f0;fontSize=15;jumpStyle=arc;fontFamily=Times New Roman;fontStyle=1" parent="1" source="fZyztvi5U-Ubj1aW4zxL-9" target="fZyztvi5U-Ubj1aW4zxL-1" edge="1">
          <mxGeometry width="50" height="50" relative="1" as="geometry">
            <mxPoint x="330" y="190" as="sourcePoint" />
            <mxPoint x="-210" y="340" as="targetPoint" />
            <Array as="points">
              <mxPoint x="330" y="-40" />
              <mxPoint x="-330" y="-40" />
              <mxPoint x="-330" y="350" />
            </Array>
          </mxGeometry>
        </mxCell>
        <mxCell id="373vyQzeU6BeogZ77B6K-33" value="" style="endArrow=classic;html=1;rounded=0;edgeStyle=orthogonalEdgeStyle;strokeColor=#00b0f0;fontSize=15;jumpStyle=arc;fontFamily=Times New Roman;fontStyle=1" parent="1" source="fZyztvi5U-Ubj1aW4zxL-8" target="fZyztvi5U-Ubj1aW4zxL-2" edge="1">
          <mxGeometry width="50" height="50" relative="1" as="geometry">
            <mxPoint x="160" y="190" as="sourcePoint" />
            <mxPoint x="360" y="190" as="targetPoint" />
            <Array as="points">
              <mxPoint x="90" y="250" />
              <mxPoint x="490" y="250" />
            </Array>
          </mxGeometry>
        </mxCell>
        <mxCell id="373vyQzeU6BeogZ77B6K-34" value="" style="endArrow=classic;html=1;rounded=0;edgeStyle=orthogonalEdgeStyle;strokeColor=#00b0f0;fontSize=15;jumpStyle=arc;fontFamily=Times New Roman;fontStyle=1" parent="1" source="fZyztvi5U-Ubj1aW4zxL-2" target="fZyztvi5U-Ubj1aW4zxL-8" edge="1">
          <mxGeometry width="50" height="50" relative="1" as="geometry">
            <mxPoint x="490" y="290" as="sourcePoint" />
            <mxPoint x="100" y="160" as="targetPoint" />
            <Array as="points">
              <mxPoint x="510" y="230" />
              <mxPoint x="110" y="230" />
            </Array>
          </mxGeometry>
        </mxCell>
        <mxCell id="373vyQzeU6BeogZ77B6K-35" value="" style="endArrow=classic;html=1;rounded=0;edgeStyle=orthogonalEdgeStyle;strokeColor=#00b0f0;fontSize=15;jumpStyle=arc;fontFamily=Times New Roman;fontStyle=1" parent="1" source="fZyztvi5U-Ubj1aW4zxL-2" target="fZyztvi5U-Ubj1aW4zxL-9" edge="1">
          <mxGeometry width="50" height="50" relative="1" as="geometry">
            <mxPoint x="510" y="290" as="sourcePoint" />
            <mxPoint x="120" y="160" as="targetPoint" />
            <Array as="points">
              <mxPoint x="530" y="210" />
              <mxPoint x="310" y="210" />
            </Array>
          </mxGeometry>
        </mxCell>
        <mxCell id="373vyQzeU6BeogZ77B6K-36" value="" style="endArrow=classic;html=1;rounded=0;edgeStyle=orthogonalEdgeStyle;strokeColor=#00b0f0;fontSize=15;jumpStyle=arc;fontFamily=Times New Roman;fontStyle=1" parent="1" source="fZyztvi5U-Ubj1aW4zxL-9" target="fZyztvi5U-Ubj1aW4zxL-2" edge="1">
          <mxGeometry width="50" height="50" relative="1" as="geometry">
            <mxPoint x="320" y="160" as="sourcePoint" />
            <mxPoint x="520" y="290" as="targetPoint" />
            <Array as="points">
              <mxPoint x="330" y="190" />
              <mxPoint x="550" y="190" />
            </Array>
          </mxGeometry>
        </mxCell>
        <mxCell id="373vyQzeU6BeogZ77B6K-37" value="" style="endArrow=classic;html=1;rounded=0;edgeStyle=orthogonalEdgeStyle;strokeColor=#00b0f0;fontSize=15;jumpStyle=arc;fontFamily=Times New Roman;fontStyle=1" parent="1" source="fZyztvi5U-Ubj1aW4zxL-9" target="fZyztvi5U-Ubj1aW4zxL-3" edge="1">
          <mxGeometry width="50" height="50" relative="1" as="geometry">
            <mxPoint x="-430" y="569.47" as="sourcePoint" />
            <mxPoint x="-230" y="569.47" as="targetPoint" />
            <Array as="points">
              <mxPoint x="400" y="-20" />
              <mxPoint x="620" y="-20" />
              <mxPoint x="620" y="670" />
              <mxPoint x="-150" y="670" />
            </Array>
          </mxGeometry>
        </mxCell>
        <mxCell id="373vyQzeU6BeogZ77B6K-38" value="" style="endArrow=classic;html=1;rounded=0;edgeStyle=orthogonalEdgeStyle;strokeColor=#00b0f0;fontSize=15;jumpStyle=arc;fontFamily=Times New Roman;fontStyle=1" parent="1" source="fZyztvi5U-Ubj1aW4zxL-3" target="fZyztvi5U-Ubj1aW4zxL-9" edge="1">
          <mxGeometry width="50" height="50" relative="1" as="geometry">
            <mxPoint x="-120" y="650" as="sourcePoint" />
            <mxPoint x="446" y="150" as="targetPoint" />
            <Array as="points">
              <mxPoint x="-170" y="690" />
              <mxPoint x="640" y="690" />
              <mxPoint x="640" y="-40" />
              <mxPoint x="380" y="-40" />
            </Array>
          </mxGeometry>
        </mxCell>
        <mxCell id="373vyQzeU6BeogZ77B6K-39" value="" style="endArrow=classic;html=1;rounded=0;edgeStyle=orthogonalEdgeStyle;strokeColor=#00b0f0;fontSize=15;jumpStyle=arc;fontFamily=Times New Roman;fontStyle=1" parent="1" source="fZyztvi5U-Ubj1aW4zxL-8" target="fZyztvi5U-Ubj1aW4zxL-3" edge="1">
          <mxGeometry width="50" height="50" relative="1" as="geometry">
            <mxPoint x="-460" y="520" as="sourcePoint" />
            <mxPoint x="-260" y="520" as="targetPoint" />
            <Array as="points">
              <mxPoint x="90" y="-60" />
              <mxPoint x="-350" y="-60" />
              <mxPoint x="-350" y="590" />
            </Array>
          </mxGeometry>
        </mxCell>
      </root>
    </mxGraphModel>
  </diagram>
  <diagram id="xNcyha9aJyOiIHMhhwD-" name="KhuyenMai">
    <mxGraphModel dx="1818" dy="870" grid="1" gridSize="10" guides="1" tooltips="1" connect="0" arrows="0" fold="1" page="0" pageScale="1" pageWidth="850" pageHeight="1100" math="0" shadow="0">
      <root>
        <mxCell id="0" />
        <mxCell id="1" parent="0" />
        <mxCell id="cns3Xj8GPhXPMuaEun5_-1" value="5.1&#xa;&#xa;THÊM KHYẾN MÃI" style="swimlane;fontStyle=1;childLayout=stackLayout;horizontal=1;startSize=20;fillColor=#bac8d3;horizontalStack=0;resizeParent=1;resizeParentMax=0;resizeLast=0;collapsible=0;marginBottom=0;swimlaneFillColor=#bac8d3;fontSize=12;whiteSpace=wrap;gradientColor=none;rounded=1;glass=0;verticalAlign=top;spacing=-1;fontFamily=Times New Roman;" parent="1" vertex="1">
          <mxGeometry x="160" y="240" width="120" height="80" as="geometry" />
        </mxCell>
        <mxCell id="cns3Xj8GPhXPMuaEun5_-2" value="5.3&#xa;&#xa;XÓA KHUYẾN MÃI" style="swimlane;fontStyle=1;childLayout=stackLayout;horizontal=1;startSize=20;fillColor=#bac8d3;horizontalStack=0;resizeParent=1;resizeParentMax=0;resizeLast=0;collapsible=0;marginBottom=0;swimlaneFillColor=#bac8d3;fontSize=12;whiteSpace=wrap;gradientColor=none;rounded=1;glass=0;verticalAlign=top;spacing=-1;fontFamily=Times New Roman;" parent="1" vertex="1">
          <mxGeometry x="160" y="400" width="120" height="80" as="geometry" />
        </mxCell>
        <mxCell id="cns3Xj8GPhXPMuaEun5_-3" value="5.2&#xa;&#xa; CHỈNH SỬA KHUYẾN MÃI" style="swimlane;fontStyle=1;childLayout=stackLayout;horizontal=1;startSize=20;fillColor=#bac8d3;horizontalStack=0;resizeParent=1;resizeParentMax=0;resizeLast=0;collapsible=0;marginBottom=0;swimlaneFillColor=#bac8d3;fontSize=12;whiteSpace=wrap;gradientColor=none;rounded=1;glass=0;verticalAlign=top;spacing=-1;fontFamily=Times New Roman;" parent="1" vertex="1">
          <mxGeometry x="160" y="80" width="120" height="80" as="geometry" />
        </mxCell>
        <mxCell id="cns3Xj8GPhXPMuaEun5_-4" value="&amp;nbsp;NHÂN VIÊN QUẢN LÝ" style="html=1;dashed=0;whiteSpace=wrap;fontStyle=1;fillColor=#f5f5f5;fontColor=#333333;strokeColor=#4472C4;strokeWidth=2;fontFamily=Times New Roman;fontSize=15;" parent="1" vertex="1">
          <mxGeometry x="-200" y="240" width="160" height="80" as="geometry" />
        </mxCell>
        <mxCell id="cns3Xj8GPhXPMuaEun5_-5" value="10&lt;span style=&quot;white-space: pre; font-size: 12px;&quot;&gt;&#x9;&lt;/span&gt;&amp;nbsp;Danh sách ưu đãi, khuyến mãi" style="html=1;dashed=0;whiteSpace=wrap;shape=mxgraph.dfd.dataStoreID;align=left;spacingLeft=8;points=[[0,0],[0.5,0],[1,0],[0,0.5],[1,0.5],[0,1],[0.5,1],[1,1]];fontSize=12;verticalAlign=middle;fillColor=#dae8fc;fontStyle=1;fontFamily=Times New Roman;strokeColor=#6c8ebf;" parent="1" vertex="1">
          <mxGeometry x="440" y="265" width="200" height="30" as="geometry" />
        </mxCell>
        <mxCell id="cns3Xj8GPhXPMuaEun5_-6" value="" style="endArrow=classic;html=1;rounded=0;edgeStyle=orthogonalEdgeStyle;strokeColor=#4472C4;fontSize=15;jumpStyle=arc;fontFamily=Times New Roman;fontStyle=1" parent="1" source="cns3Xj8GPhXPMuaEun5_-2" target="cns3Xj8GPhXPMuaEun5_-4" edge="1">
          <mxGeometry width="50" height="50" relative="1" as="geometry">
            <mxPoint x="60" y="390" as="sourcePoint" />
            <mxPoint x="-140" y="390" as="targetPoint" />
            <Array as="points">
              <mxPoint x="-120" y="440" />
            </Array>
          </mxGeometry>
        </mxCell>
        <mxCell id="cns3Xj8GPhXPMuaEun5_-7" value="" style="endArrow=classic;html=1;rounded=0;edgeStyle=orthogonalEdgeStyle;strokeColor=#00b0f0;fontSize=15;jumpStyle=arc;fontFamily=Times New Roman;fontStyle=1" parent="1" source="cns3Xj8GPhXPMuaEun5_-5" target="cns3Xj8GPhXPMuaEun5_-1" edge="1">
          <mxGeometry width="50" height="50" relative="1" as="geometry">
            <mxPoint x="470" y="285.01" as="sourcePoint" />
            <mxPoint x="270" y="285.01" as="targetPoint" />
            <Array as="points">
              <mxPoint x="360" y="290" />
              <mxPoint x="360" y="290" />
            </Array>
          </mxGeometry>
        </mxCell>
        <mxCell id="UyNlR-sDQYq6j_XPbH04-1" value="Thông tin ưu đãi, khuyến mãi" style="text;html=1;align=center;verticalAlign=middle;resizable=0;points=[];autosize=1;strokeColor=none;fillColor=none;fontSize=12;fontStyle=1" parent="1" vertex="1">
          <mxGeometry x="-35" y="255" width="190" height="30" as="geometry" />
        </mxCell>
        <mxCell id="-5DdSOkc1Bu07He4qUn9-1" value="" style="endArrow=classic;html=1;rounded=0;edgeStyle=orthogonalEdgeStyle;strokeColor=#4472C4;fontSize=15;jumpStyle=arc;fontFamily=Times New Roman;fontStyle=1" parent="1" source="cns3Xj8GPhXPMuaEun5_-4" target="cns3Xj8GPhXPMuaEun5_-1" edge="1">
          <mxGeometry width="50" height="50" relative="1" as="geometry">
            <mxPoint x="-40" y="279.47" as="sourcePoint" />
            <mxPoint x="160" y="279.47" as="targetPoint" />
            <Array as="points" />
          </mxGeometry>
        </mxCell>
        <mxCell id="-5DdSOkc1Bu07He4qUn9-2" value="" style="endArrow=classic;html=1;rounded=0;edgeStyle=orthogonalEdgeStyle;strokeColor=#4472C4;fontSize=15;jumpStyle=arc;fontFamily=Times New Roman;fontStyle=1" parent="1" source="cns3Xj8GPhXPMuaEun5_-4" target="cns3Xj8GPhXPMuaEun5_-3" edge="1">
          <mxGeometry width="50" height="50" relative="1" as="geometry">
            <mxPoint x="-180" y="170" as="sourcePoint" />
            <mxPoint x="20" y="170" as="targetPoint" />
            <Array as="points">
              <mxPoint x="-140" y="100" />
            </Array>
          </mxGeometry>
        </mxCell>
        <mxCell id="-5DdSOkc1Bu07He4qUn9-3" value="" style="endArrow=classic;html=1;rounded=0;edgeStyle=orthogonalEdgeStyle;strokeColor=#4472C4;fontSize=15;jumpStyle=arc;fontFamily=Times New Roman;fontStyle=1" parent="1" source="cns3Xj8GPhXPMuaEun5_-3" target="cns3Xj8GPhXPMuaEun5_-4" edge="1">
          <mxGeometry width="50" height="50" relative="1" as="geometry">
            <mxPoint x="170" y="110" as="sourcePoint" />
            <mxPoint x="-160" y="250" as="targetPoint" />
            <Array as="points">
              <mxPoint x="-120" y="120" />
            </Array>
          </mxGeometry>
        </mxCell>
        <mxCell id="-5DdSOkc1Bu07He4qUn9-4" value="" style="endArrow=classic;html=1;rounded=0;edgeStyle=orthogonalEdgeStyle;strokeColor=#4472C4;fontSize=15;jumpStyle=arc;fontFamily=Times New Roman;fontStyle=1" parent="1" source="cns3Xj8GPhXPMuaEun5_-4" target="cns3Xj8GPhXPMuaEun5_-3" edge="1">
          <mxGeometry width="50" height="50" relative="1" as="geometry">
            <mxPoint x="-150" y="250" as="sourcePoint" />
            <mxPoint x="170" y="130" as="targetPoint" />
            <Array as="points">
              <mxPoint x="-100" y="140" />
            </Array>
          </mxGeometry>
        </mxCell>
        <mxCell id="-5DdSOkc1Bu07He4qUn9-5" value="" style="endArrow=classic;html=1;rounded=0;edgeStyle=orthogonalEdgeStyle;strokeColor=#4472C4;fontSize=15;jumpStyle=arc;fontFamily=Times New Roman;fontStyle=1" parent="1" source="cns3Xj8GPhXPMuaEun5_-4" target="cns3Xj8GPhXPMuaEun5_-2" edge="1">
          <mxGeometry width="50" height="50" relative="1" as="geometry">
            <mxPoint x="-210" y="390" as="sourcePoint" />
            <mxPoint x="-10" y="390" as="targetPoint" />
            <Array as="points">
              <mxPoint x="-140" y="460" />
            </Array>
          </mxGeometry>
        </mxCell>
        <mxCell id="-5DdSOkc1Bu07He4qUn9-6" value="" style="endArrow=classic;html=1;rounded=0;edgeStyle=orthogonalEdgeStyle;strokeColor=#4472C4;fontSize=15;jumpStyle=arc;fontFamily=Times New Roman;fontStyle=1" parent="1" source="cns3Xj8GPhXPMuaEun5_-4" target="cns3Xj8GPhXPMuaEun5_-2" edge="1">
          <mxGeometry width="50" height="50" relative="1" as="geometry">
            <mxPoint x="-110" y="330" as="sourcePoint" />
            <mxPoint x="170" y="450" as="targetPoint" />
            <Array as="points">
              <mxPoint x="-100" y="420" />
            </Array>
          </mxGeometry>
        </mxCell>
        <mxCell id="CD0LVf69-7o2t-DiIbUq-1" value="Thông tin tra cứu khuyến mãi" style="text;html=1;align=center;verticalAlign=middle;resizable=0;points=[];autosize=1;strokeColor=none;fillColor=none;fontSize=12;fontStyle=1" parent="1" vertex="1">
          <mxGeometry x="-80" y="75" width="190" height="30" as="geometry" />
        </mxCell>
        <mxCell id="CD0LVf69-7o2t-DiIbUq-2" value="Kết quả tra cứu thông tin khuyến mãi" style="text;html=1;align=center;verticalAlign=middle;resizable=0;points=[];autosize=1;strokeColor=none;fillColor=none;fontSize=12;fontStyle=1" parent="1" vertex="1">
          <mxGeometry x="-105" y="95" width="240" height="30" as="geometry" />
        </mxCell>
        <mxCell id="CD0LVf69-7o2t-DiIbUq-3" value="Thông tin mới của khuyến mãi" style="text;html=1;align=center;verticalAlign=middle;resizable=0;points=[];autosize=1;strokeColor=none;fillColor=none;fontSize=12;fontStyle=1" parent="1" vertex="1">
          <mxGeometry x="-85" y="115" width="200" height="30" as="geometry" />
        </mxCell>
        <mxCell id="CD0LVf69-7o2t-DiIbUq-4" value="Thông tin tra cứu khuyến mãi" style="text;html=1;align=center;verticalAlign=middle;resizable=0;points=[];autosize=1;strokeColor=none;fillColor=none;fontSize=12;fontStyle=1" parent="1" vertex="1">
          <mxGeometry x="-65" y="395" width="190" height="30" as="geometry" />
        </mxCell>
        <mxCell id="CD0LVf69-7o2t-DiIbUq-5" value="Kết quả tra cứu thông tin khuyến mãi" style="text;html=1;align=center;verticalAlign=middle;resizable=0;points=[];autosize=1;strokeColor=none;fillColor=none;fontSize=12;fontStyle=1" parent="1" vertex="1">
          <mxGeometry x="-90" y="415" width="240" height="30" as="geometry" />
        </mxCell>
        <mxCell id="CD0LVf69-7o2t-DiIbUq-6" value="Danh sách sau khi xóa" style="text;html=1;align=center;verticalAlign=middle;resizable=0;points=[];autosize=1;strokeColor=none;fillColor=none;fontSize=12;fontStyle=1" parent="1" vertex="1">
          <mxGeometry x="-60" y="435" width="150" height="30" as="geometry" />
        </mxCell>
        <mxCell id="wEPMgcyiEJyzfHqxOXj9-1" value="" style="endArrow=classic;html=1;rounded=0;edgeStyle=orthogonalEdgeStyle;strokeColor=#00b0f0;fontSize=15;jumpStyle=arc;fontFamily=Times New Roman;fontStyle=1" parent="1" source="cns3Xj8GPhXPMuaEun5_-1" target="cns3Xj8GPhXPMuaEun5_-5" edge="1">
          <mxGeometry width="50" height="50" relative="1" as="geometry">
            <mxPoint x="230" y="270" as="sourcePoint" />
            <mxPoint x="480" y="279.53999999999996" as="targetPoint" />
            <Array as="points">
              <mxPoint x="380" y="270" />
              <mxPoint x="380" y="270" />
            </Array>
          </mxGeometry>
        </mxCell>
        <mxCell id="wEPMgcyiEJyzfHqxOXj9-2" value="" style="endArrow=classic;html=1;rounded=0;edgeStyle=orthogonalEdgeStyle;strokeColor=#00b0f0;fontSize=15;jumpStyle=arc;fontFamily=Times New Roman;fontStyle=1" parent="1" source="cns3Xj8GPhXPMuaEun5_-3" target="cns3Xj8GPhXPMuaEun5_-5" edge="1">
          <mxGeometry width="50" height="50" relative="1" as="geometry">
            <mxPoint x="300" y="190" as="sourcePoint" />
            <mxPoint x="460" y="190" as="targetPoint" />
            <Array as="points">
              <mxPoint x="540" y="110" />
            </Array>
          </mxGeometry>
        </mxCell>
        <mxCell id="wEPMgcyiEJyzfHqxOXj9-3" value="" style="endArrow=classic;html=1;rounded=0;edgeStyle=orthogonalEdgeStyle;strokeColor=#00b0f0;fontSize=15;jumpStyle=arc;fontFamily=Times New Roman;fontStyle=1" parent="1" source="cns3Xj8GPhXPMuaEun5_-5" target="cns3Xj8GPhXPMuaEun5_-3" edge="1">
          <mxGeometry width="50" height="50" relative="1" as="geometry">
            <mxPoint x="550" y="280" as="sourcePoint" />
            <mxPoint x="290" y="120" as="targetPoint" />
            <Array as="points">
              <mxPoint x="520" y="130" />
            </Array>
          </mxGeometry>
        </mxCell>
        <mxCell id="wEPMgcyiEJyzfHqxOXj9-4" value="" style="endArrow=classic;html=1;rounded=0;edgeStyle=orthogonalEdgeStyle;strokeColor=#00b0f0;fontSize=15;jumpStyle=arc;fontFamily=Times New Roman;fontStyle=1" parent="1" source="cns3Xj8GPhXPMuaEun5_-5" target="cns3Xj8GPhXPMuaEun5_-2" edge="1">
          <mxGeometry width="50" height="50" relative="1" as="geometry">
            <mxPoint x="470" y="415" as="sourcePoint" />
            <mxPoint x="310" y="415" as="targetPoint" />
            <Array as="points">
              <mxPoint x="520" y="430" />
            </Array>
          </mxGeometry>
        </mxCell>
        <mxCell id="wEPMgcyiEJyzfHqxOXj9-5" value="" style="endArrow=classic;html=1;rounded=0;edgeStyle=orthogonalEdgeStyle;strokeColor=#00b0f0;fontSize=15;jumpStyle=arc;fontFamily=Times New Roman;fontStyle=1" parent="1" source="cns3Xj8GPhXPMuaEun5_-2" target="cns3Xj8GPhXPMuaEun5_-5" edge="1">
          <mxGeometry width="50" height="50" relative="1" as="geometry">
            <mxPoint x="290" y="440" as="sourcePoint" />
            <mxPoint x="550" y="305" as="targetPoint" />
            <Array as="points">
              <mxPoint x="540" y="450" />
            </Array>
          </mxGeometry>
        </mxCell>
      </root>
    </mxGraphModel>
  </diagram>
  <diagram id="1nmOoQ6ZM8_xMBVs9z16" name="ThongKe">
    <mxGraphModel dx="1418" dy="2070" grid="1" gridSize="10" guides="1" tooltips="1" connect="0" arrows="0" fold="1" page="0" pageScale="1" pageWidth="850" pageHeight="1100" math="0" shadow="0">
      <root>
        <mxCell id="0" />
        <mxCell id="1" parent="0" />
        <mxCell id="hUibJh7caiNDUeV6Zuvb-1" value="6.1&#xa;&#xa; TIẾP NHẬN YÊU CẦU THỐNG KÊ" style="swimlane;fontStyle=1;childLayout=stackLayout;horizontal=1;startSize=20;fillColor=#bac8d3;horizontalStack=0;resizeParent=1;resizeParentMax=0;resizeLast=0;collapsible=0;marginBottom=0;swimlaneFillColor=#bac8d3;fontSize=12;whiteSpace=wrap;gradientColor=none;rounded=1;glass=0;verticalAlign=top;spacing=-1;fontFamily=Times New Roman;" parent="1" vertex="1">
          <mxGeometry x="440" y="-880" width="120" height="80" as="geometry" />
        </mxCell>
        <mxCell id="hUibJh7caiNDUeV6Zuvb-2" value="12&lt;span style=&quot;white-space: pre; font-size: 12px;&quot;&gt;&#x9;&lt;/span&gt;Hồ sơ thống kê doanh thu" style="html=1;dashed=0;whiteSpace=wrap;shape=mxgraph.dfd.dataStoreID;align=left;spacingLeft=8;points=[[0,0],[0.5,0],[1,0],[0,0.5],[1,0.5],[0,1],[0.5,1],[1,1]];fontSize=12;verticalAlign=middle;fillColor=#dae8fc;fontStyle=1;fontFamily=Times New Roman;strokeColor=#6c8ebf;" parent="1" vertex="1">
          <mxGeometry x="722" y="-750" width="170" height="30" as="geometry" />
        </mxCell>
        <mxCell id="hUibJh7caiNDUeV6Zuvb-3" value="13&lt;span style=&quot;white-space: pre; font-size: 12px;&quot;&gt;&#x9;&lt;/span&gt;Hồ sơ thống kê món ăn" style="html=1;dashed=0;whiteSpace=wrap;shape=mxgraph.dfd.dataStoreID;align=left;spacingLeft=8;points=[[0,0],[0.5,0],[1,0],[0,0.5],[1,0.5],[0,1],[0.5,1],[1,1]];fontSize=12;verticalAlign=middle;fillColor=#dae8fc;fontStyle=1;fontFamily=Times New Roman;strokeColor=#6c8ebf;" parent="1" vertex="1">
          <mxGeometry x="722" y="-695" width="160" height="30" as="geometry" />
        </mxCell>
        <mxCell id="hUibJh7caiNDUeV6Zuvb-4" value="14&lt;span style=&quot;white-space: pre; font-size: 12px;&quot;&gt;&#x9;&lt;/span&gt;Hồ sơ thống kê số lượng đơn hàng" style="html=1;dashed=0;whiteSpace=wrap;shape=mxgraph.dfd.dataStoreID;align=left;spacingLeft=8;points=[[0,0],[0.5,0],[1,0],[0,0.5],[1,0.5],[0,1],[0.5,1],[1,1]];fontSize=12;verticalAlign=middle;fillColor=#dae8fc;fontStyle=1;fontFamily=Times New Roman;strokeColor=#6c8ebf;" parent="1" vertex="1">
          <mxGeometry x="722" y="-640" width="214" height="30" as="geometry" />
        </mxCell>
        <mxCell id="hUibJh7caiNDUeV6Zuvb-5" value="&amp;nbsp;NHÂN VIÊN QUẢN LÝ" style="html=1;dashed=0;whiteSpace=wrap;fontStyle=1;fillColor=#f5f5f5;fontColor=#333333;strokeColor=#4472C4;strokeWidth=2;fontFamily=Times New Roman;fontSize=15;" parent="1" vertex="1">
          <mxGeometry x="160" y="-800" width="160" height="80" as="geometry" />
        </mxCell>
        <mxCell id="hUibJh7caiNDUeV6Zuvb-6" value="" style="endArrow=classic;html=1;rounded=0;edgeStyle=orthogonalEdgeStyle;strokeColor=#00b0f0;fontSize=15;jumpStyle=arc;fontFamily=Times New Roman;fontStyle=1" parent="1" source="hUibJh7caiNDUeV6Zuvb-9" target="hUibJh7caiNDUeV6Zuvb-1" edge="1">
          <mxGeometry width="50" height="50" relative="1" as="geometry">
            <mxPoint x="730" y="-855.6599999999999" as="sourcePoint" />
            <mxPoint x="570" y="-855.6600000000001" as="targetPoint" />
            <Array as="points">
              <mxPoint x="641" y="-895" />
              <mxPoint x="641" y="-860" />
            </Array>
          </mxGeometry>
        </mxCell>
        <mxCell id="hUibJh7caiNDUeV6Zuvb-7" value="" style="endArrow=classic;html=1;rounded=0;edgeStyle=orthogonalEdgeStyle;strokeColor=#4472C4;fontSize=15;jumpStyle=arc;fontFamily=Times New Roman;fontStyle=1" parent="1" source="hUibJh7caiNDUeV6Zuvb-5" target="hUibJh7caiNDUeV6Zuvb-1" edge="1">
          <mxGeometry width="50" height="50" relative="1" as="geometry">
            <mxPoint x="220" y="-850.0000000000001" as="sourcePoint" />
            <mxPoint x="380" y="-850" as="targetPoint" />
            <Array as="points">
              <mxPoint x="260" y="-830" />
            </Array>
          </mxGeometry>
        </mxCell>
        <mxCell id="hUibJh7caiNDUeV6Zuvb-8" value="Yêu cầu thống kê" style="text;html=1;align=center;verticalAlign=middle;resizable=0;points=[];autosize=1;strokeColor=none;fillColor=none;fontSize=12;fontStyle=1" parent="1" vertex="1">
          <mxGeometry x="280" y="-855" width="120" height="30" as="geometry" />
        </mxCell>
        <mxCell id="hUibJh7caiNDUeV6Zuvb-9" value="2&lt;span style=&quot;white-space: pre; font-size: 12px;&quot;&gt;&#x9;&lt;/span&gt;Danh sách tài khoản khách hàng" style="html=1;dashed=0;whiteSpace=wrap;shape=mxgraph.dfd.dataStoreID;align=left;spacingLeft=8;points=[[0,0],[0.5,0],[1,0],[0,0.5],[1,0.5],[0,1],[0.5,1],[1,1]];fontSize=12;verticalAlign=middle;fillColor=#dae8fc;fontStyle=1;fontFamily=Times New Roman;strokeColor=#6c8ebf;" parent="1" vertex="1">
          <mxGeometry x="660" y="-910" width="210" height="30" as="geometry" />
        </mxCell>
        <mxCell id="hUibJh7caiNDUeV6Zuvb-10" value="4&lt;span style=&quot;white-space: pre; font-size: 12px;&quot;&gt;&#x9;&lt;/span&gt;Hóa đơn bán hàng" style="html=1;dashed=0;whiteSpace=wrap;shape=mxgraph.dfd.dataStoreID;align=left;spacingLeft=8;points=[[0,0],[0.5,0],[1,0],[0,0.5],[1,0.5],[0,1],[0.5,1],[1,1]];fontSize=12;verticalAlign=middle;fillColor=#dae8fc;fontStyle=1;fontFamily=Times New Roman;strokeColor=#6c8ebf;" parent="1" vertex="1">
          <mxGeometry x="660" y="-855" width="135" height="30" as="geometry" />
        </mxCell>
        <mxCell id="hUibJh7caiNDUeV6Zuvb-11" value="5&lt;span style=&quot;white-space: pre; font-size: 12px;&quot;&gt;&#x9;&lt;/span&gt;Danh sách đơn hàng" style="html=1;dashed=0;whiteSpace=wrap;shape=mxgraph.dfd.dataStoreID;align=left;spacingLeft=8;points=[[0,0],[0.5,0],[1,0],[0,0.5],[1,0.5],[0,1],[0.5,1],[1,1]];fontSize=12;verticalAlign=middle;fillColor=#dae8fc;fontStyle=1;fontFamily=Times New Roman;strokeColor=#6c8ebf;" parent="1" vertex="1">
          <mxGeometry x="660" y="-800" width="150" height="30" as="geometry" />
        </mxCell>
        <mxCell id="hUibJh7caiNDUeV6Zuvb-12" value="" style="endArrow=classic;html=1;rounded=0;edgeStyle=orthogonalEdgeStyle;strokeColor=#000000;fontSize=15;jumpStyle=arc;fontFamily=Times New Roman;fontStyle=1" parent="1" source="hUibJh7caiNDUeV6Zuvb-1" target="hUibJh7caiNDUeV6Zuvb-13" edge="1">
          <mxGeometry width="50" height="50" relative="1" as="geometry">
            <mxPoint x="420" y="-760.42" as="sourcePoint" />
            <mxPoint x="580" y="-760.4199999999998" as="targetPoint" />
            <Array as="points">
              <mxPoint x="520" y="-760" />
              <mxPoint x="520" y="-760" />
            </Array>
          </mxGeometry>
        </mxCell>
        <mxCell id="hUibJh7caiNDUeV6Zuvb-13" value="6.2&#xa;&#xa;TRẢ KẾT QUẢ THỐNG KÊ" style="swimlane;fontStyle=1;childLayout=stackLayout;horizontal=1;startSize=20;fillColor=#bac8d3;horizontalStack=0;resizeParent=1;resizeParentMax=0;resizeLast=0;collapsible=0;marginBottom=0;swimlaneFillColor=#bac8d3;fontSize=12;whiteSpace=wrap;gradientColor=none;rounded=1;glass=0;verticalAlign=top;spacing=-1;fontFamily=Times New Roman;" parent="1" vertex="1">
          <mxGeometry x="440" y="-720" width="120" height="80" as="geometry" />
        </mxCell>
        <mxCell id="hUibJh7caiNDUeV6Zuvb-14" value="" style="endArrow=classic;html=1;rounded=0;edgeStyle=orthogonalEdgeStyle;strokeColor=#000000;fontSize=15;jumpStyle=arc;fontFamily=Times New Roman;fontStyle=1" parent="1" source="hUibJh7caiNDUeV6Zuvb-1" target="hUibJh7caiNDUeV6Zuvb-13" edge="1">
          <mxGeometry width="50" height="50" relative="1" as="geometry">
            <mxPoint x="480" y="-800" as="sourcePoint" />
            <mxPoint x="480" y="-720" as="targetPoint" />
            <Array as="points">
              <mxPoint x="480" y="-760" />
              <mxPoint x="480" y="-760" />
            </Array>
          </mxGeometry>
        </mxCell>
        <mxCell id="hUibJh7caiNDUeV6Zuvb-15" value="" style="endArrow=classic;html=1;rounded=0;edgeStyle=orthogonalEdgeStyle;strokeColor=#4472C4;fontSize=15;jumpStyle=arc;fontFamily=Times New Roman;fontStyle=1" parent="1" source="hUibJh7caiNDUeV6Zuvb-1" target="hUibJh7caiNDUeV6Zuvb-5" edge="1">
          <mxGeometry width="50" height="50" relative="1" as="geometry">
            <mxPoint x="410" y="-850" as="sourcePoint" />
            <mxPoint x="230" y="-820" as="targetPoint" />
            <Array as="points">
              <mxPoint x="220" y="-850" />
            </Array>
          </mxGeometry>
        </mxCell>
        <mxCell id="hUibJh7caiNDUeV6Zuvb-16" value="&quot;Yêu cầu không hợp lệ&quot;" style="text;html=1;align=center;verticalAlign=middle;resizable=0;points=[];autosize=1;strokeColor=none;fillColor=none;fontSize=12;fontStyle=1" parent="1" vertex="1">
          <mxGeometry x="250" y="-875" width="160" height="30" as="geometry" />
        </mxCell>
        <mxCell id="hUibJh7caiNDUeV6Zuvb-17" value="&quot;Hợp lệ&quot;" style="text;html=1;align=center;verticalAlign=middle;resizable=0;points=[];autosize=1;strokeColor=none;fillColor=none;fontSize=12;fontStyle=1" parent="1" vertex="1">
          <mxGeometry x="477" y="-800" width="70" height="30" as="geometry" />
        </mxCell>
        <mxCell id="hUibJh7caiNDUeV6Zuvb-18" value="Yêu cầu thống kê" style="text;html=1;align=center;verticalAlign=middle;resizable=0;points=[];autosize=1;strokeColor=none;fillColor=none;fontSize=12;fontStyle=1" parent="1" vertex="1">
          <mxGeometry x="422" y="-750" width="120" height="30" as="geometry" />
        </mxCell>
        <mxCell id="hUibJh7caiNDUeV6Zuvb-19" value="" style="endArrow=classic;html=1;rounded=0;edgeStyle=orthogonalEdgeStyle;strokeColor=#4472C4;fontSize=15;jumpStyle=arc;fontFamily=Times New Roman;fontStyle=1" parent="1" source="hUibJh7caiNDUeV6Zuvb-13" target="hUibJh7caiNDUeV6Zuvb-5" edge="1">
          <mxGeometry width="50" height="50" relative="1" as="geometry">
            <mxPoint x="210" y="-635" as="sourcePoint" />
            <mxPoint x="390" y="-665" as="targetPoint" />
            <Array as="points">
              <mxPoint x="280" y="-700" />
            </Array>
          </mxGeometry>
        </mxCell>
        <mxCell id="hUibJh7caiNDUeV6Zuvb-20" value="" style="endArrow=classic;html=1;rounded=0;edgeStyle=orthogonalEdgeStyle;strokeColor=#4472C4;fontSize=15;jumpStyle=arc;fontFamily=Times New Roman;fontStyle=1" parent="1" source="hUibJh7caiNDUeV6Zuvb-13" target="hUibJh7caiNDUeV6Zuvb-5" edge="1">
          <mxGeometry width="50" height="50" relative="1" as="geometry">
            <mxPoint x="440" y="-680" as="sourcePoint" />
            <mxPoint x="240" y="-700" as="targetPoint" />
            <Array as="points">
              <mxPoint x="240" y="-680" />
            </Array>
          </mxGeometry>
        </mxCell>
        <mxCell id="hUibJh7caiNDUeV6Zuvb-21" value="" style="endArrow=classic;html=1;rounded=0;edgeStyle=orthogonalEdgeStyle;strokeColor=#4472C4;fontSize=15;jumpStyle=arc;fontFamily=Times New Roman;fontStyle=1" parent="1" source="hUibJh7caiNDUeV6Zuvb-13" target="hUibJh7caiNDUeV6Zuvb-5" edge="1">
          <mxGeometry width="50" height="50" relative="1" as="geometry">
            <mxPoint x="430" y="-660" as="sourcePoint" />
            <mxPoint x="230" y="-680" as="targetPoint" />
            <Array as="points">
              <mxPoint x="200" y="-660" />
            </Array>
          </mxGeometry>
        </mxCell>
        <mxCell id="hUibJh7caiNDUeV6Zuvb-22" value="Bảng thống kê số lượng đơn hàng" style="text;html=1;align=center;verticalAlign=middle;resizable=0;points=[];autosize=1;strokeColor=none;fillColor=none;fontSize=12;fontStyle=1" parent="1" vertex="1">
          <mxGeometry x="210" y="-685" width="220" height="30" as="geometry" />
        </mxCell>
        <mxCell id="hUibJh7caiNDUeV6Zuvb-23" value="Bảng thống kê doanh thu" style="text;html=1;align=center;verticalAlign=middle;resizable=0;points=[];autosize=1;strokeColor=none;fillColor=none;fontSize=12;fontStyle=1" parent="1" vertex="1">
          <mxGeometry x="255" y="-705" width="170" height="30" as="geometry" />
        </mxCell>
        <mxCell id="hUibJh7caiNDUeV6Zuvb-24" value="Bảng thống kê món ăn" style="text;html=1;align=center;verticalAlign=middle;resizable=0;points=[];autosize=1;strokeColor=none;fillColor=none;fontSize=12;fontStyle=1" parent="1" vertex="1">
          <mxGeometry x="285" y="-725" width="150" height="30" as="geometry" />
        </mxCell>
        <mxCell id="hUibJh7caiNDUeV6Zuvb-25" value="" style="endArrow=classic;html=1;rounded=0;edgeStyle=orthogonalEdgeStyle;strokeColor=#00b0f0;fontSize=15;jumpStyle=arc;fontFamily=Times New Roman;fontStyle=1" parent="1" source="hUibJh7caiNDUeV6Zuvb-10" target="hUibJh7caiNDUeV6Zuvb-1" edge="1">
          <mxGeometry width="50" height="50" relative="1" as="geometry">
            <mxPoint x="732" y="-855" as="sourcePoint" />
            <mxPoint x="570" y="-820" as="targetPoint" />
            <Array as="points">
              <mxPoint x="690" y="-840" />
              <mxPoint x="690" y="-840" />
            </Array>
          </mxGeometry>
        </mxCell>
        <mxCell id="hUibJh7caiNDUeV6Zuvb-26" value="" style="endArrow=classic;html=1;rounded=0;edgeStyle=orthogonalEdgeStyle;strokeColor=#00b0f0;fontSize=15;jumpStyle=arc;fontFamily=Times New Roman;fontStyle=1" parent="1" source="hUibJh7caiNDUeV6Zuvb-11" target="hUibJh7caiNDUeV6Zuvb-1" edge="1">
          <mxGeometry width="50" height="50" relative="1" as="geometry">
            <mxPoint x="732" y="-825" as="sourcePoint" />
            <mxPoint x="570" y="-825" as="targetPoint" />
            <Array as="points">
              <mxPoint x="640" y="-785" />
              <mxPoint x="640" y="-820" />
            </Array>
          </mxGeometry>
        </mxCell>
        <mxCell id="hUibJh7caiNDUeV6Zuvb-27" value="" style="endArrow=classic;html=1;rounded=0;edgeStyle=orthogonalEdgeStyle;strokeColor=#00b0f0;fontSize=15;jumpStyle=arc;fontFamily=Times New Roman;fontStyle=1" parent="1" source="hUibJh7caiNDUeV6Zuvb-2" target="hUibJh7caiNDUeV6Zuvb-13" edge="1">
          <mxGeometry width="50" height="50" relative="1" as="geometry">
            <mxPoint x="742" y="-705" as="sourcePoint" />
            <mxPoint x="580" y="-705" as="targetPoint" />
            <Array as="points">
              <mxPoint x="641" y="-735" />
              <mxPoint x="641" y="-700" />
            </Array>
          </mxGeometry>
        </mxCell>
        <mxCell id="hUibJh7caiNDUeV6Zuvb-28" value="" style="endArrow=classic;html=1;rounded=0;edgeStyle=orthogonalEdgeStyle;strokeColor=#00b0f0;fontSize=15;jumpStyle=arc;fontFamily=Times New Roman;fontStyle=1" parent="1" source="hUibJh7caiNDUeV6Zuvb-3" target="hUibJh7caiNDUeV6Zuvb-13" edge="1">
          <mxGeometry width="50" height="50" relative="1" as="geometry">
            <mxPoint x="732" y="-710.03" as="sourcePoint" />
            <mxPoint x="570" y="-675.03" as="targetPoint" />
            <Array as="points">
              <mxPoint x="730" y="-680" />
              <mxPoint x="730" y="-680" />
            </Array>
          </mxGeometry>
        </mxCell>
        <mxCell id="hUibJh7caiNDUeV6Zuvb-29" value="" style="endArrow=classic;html=1;rounded=0;edgeStyle=orthogonalEdgeStyle;strokeColor=#00b0f0;fontSize=15;jumpStyle=arc;fontFamily=Times New Roman;fontStyle=1" parent="1" source="hUibJh7caiNDUeV6Zuvb-4" target="hUibJh7caiNDUeV6Zuvb-13" edge="1">
          <mxGeometry width="50" height="50" relative="1" as="geometry">
            <mxPoint x="732" y="-655" as="sourcePoint" />
            <mxPoint x="570" y="-655" as="targetPoint" />
            <Array as="points">
              <mxPoint x="641" y="-625" />
              <mxPoint x="641" y="-660" />
            </Array>
          </mxGeometry>
        </mxCell>
        <mxCell id="hUibJh7caiNDUeV6Zuvb-30" value="" style="endArrow=classic;html=1;rounded=0;edgeStyle=orthogonalEdgeStyle;strokeColor=#00b0f0;fontSize=15;jumpStyle=arc;fontFamily=Times New Roman;fontStyle=1" parent="1" source="hUibJh7caiNDUeV6Zuvb-1" target="hUibJh7caiNDUeV6Zuvb-2" edge="1">
          <mxGeometry width="50" height="50" relative="1" as="geometry">
            <mxPoint x="500" y="-910" as="sourcePoint" />
            <mxPoint x="600" y="-910" as="targetPoint" />
            <Array as="points">
              <mxPoint x="530" y="-920" />
              <mxPoint x="910" y="-920" />
              <mxPoint x="910" y="-735" />
            </Array>
          </mxGeometry>
        </mxCell>
        <mxCell id="hUibJh7caiNDUeV6Zuvb-31" value="" style="endArrow=classic;html=1;rounded=0;edgeStyle=orthogonalEdgeStyle;strokeColor=#00b0f0;fontSize=15;jumpStyle=arc;fontFamily=Times New Roman;fontStyle=1" parent="1" source="hUibJh7caiNDUeV6Zuvb-1" target="hUibJh7caiNDUeV6Zuvb-3" edge="1">
          <mxGeometry width="50" height="50" relative="1" as="geometry">
            <mxPoint x="512" y="-880.03" as="sourcePoint" />
            <mxPoint x="874" y="-735.03" as="targetPoint" />
            <Array as="points">
              <mxPoint x="500" y="-930" />
              <mxPoint x="930" y="-930" />
              <mxPoint x="930" y="-680" />
            </Array>
          </mxGeometry>
        </mxCell>
        <mxCell id="hUibJh7caiNDUeV6Zuvb-32" value="" style="endArrow=classic;html=1;rounded=0;edgeStyle=orthogonalEdgeStyle;strokeColor=#00b0f0;fontSize=15;jumpStyle=arc;fontFamily=Times New Roman;fontStyle=1" parent="1" source="hUibJh7caiNDUeV6Zuvb-1" target="hUibJh7caiNDUeV6Zuvb-4" edge="1">
          <mxGeometry width="50" height="50" relative="1" as="geometry">
            <mxPoint x="520" y="-870" as="sourcePoint" />
            <mxPoint x="892" y="-670" as="targetPoint" />
            <Array as="points">
              <mxPoint x="470" y="-940" />
              <mxPoint x="950" y="-940" />
              <mxPoint x="950" y="-625" />
            </Array>
          </mxGeometry>
        </mxCell>
      </root>
    </mxGraphModel>
  </diagram>
  <diagram id="rgUh059DnQBX33wlEinY" name="SuCo">
    <mxGraphModel dx="1434" dy="1686" grid="1" gridSize="10" guides="1" tooltips="1" connect="1" arrows="0" fold="1" page="0" pageScale="1" pageWidth="850" pageHeight="1100" math="0" shadow="0">
      <root>
        <mxCell id="0" />
        <mxCell id="1" parent="0" />
        <mxCell id="NbjEq-aSMOwebAD5fnaP-1" value="7.1&#xa;&#xa;TIẾP NHẬN SỰ CỐ" style="swimlane;fontStyle=1;childLayout=stackLayout;horizontal=1;startSize=20;fillColor=#bac8d3;horizontalStack=0;resizeParent=1;resizeParentMax=0;resizeLast=0;collapsible=0;marginBottom=0;swimlaneFillColor=#bac8d3;fontSize=12;whiteSpace=wrap;gradientColor=none;rounded=1;glass=0;verticalAlign=top;spacing=-1;fontFamily=Times New Roman;" parent="1" vertex="1">
          <mxGeometry x="320" y="-440" width="120" height="80" as="geometry" />
        </mxCell>
        <mxCell id="NbjEq-aSMOwebAD5fnaP-2" value="7.2&#xa;&#xa;KIỂM TRA SỰ CỐ" style="swimlane;fontStyle=1;childLayout=stackLayout;horizontal=1;startSize=20;fillColor=#bac8d3;horizontalStack=0;resizeParent=1;resizeParentMax=0;resizeLast=0;collapsible=0;marginBottom=0;swimlaneFillColor=#bac8d3;fontSize=12;whiteSpace=wrap;gradientColor=none;rounded=1;glass=0;verticalAlign=top;spacing=-1;fontFamily=Times New Roman;strokeColor=#000000;" parent="1" vertex="1">
          <mxGeometry x="720" y="-440" width="120" height="80" as="geometry" />
        </mxCell>
        <mxCell id="NbjEq-aSMOwebAD5fnaP-3" value="7.3&#xa;&#xa;XỬ LÝ SỰ CỐ" style="swimlane;fontStyle=1;childLayout=stackLayout;horizontal=1;startSize=20;fillColor=#bac8d3;horizontalStack=0;resizeParent=1;resizeParentMax=0;resizeLast=0;collapsible=0;marginBottom=0;swimlaneFillColor=#bac8d3;fontSize=12;whiteSpace=wrap;gradientColor=none;rounded=1;glass=0;verticalAlign=top;spacing=-1;fontFamily=Times New Roman;" parent="1" vertex="1">
          <mxGeometry x="720" y="-160" width="120" height="80" as="geometry" />
        </mxCell>
        <mxCell id="NbjEq-aSMOwebAD5fnaP-4" value="NHÂN VIÊN KỸ THUẬT" style="html=1;dashed=0;whiteSpace=wrap;fontStyle=1;fillColor=#f5f5f5;strokeColor=#ED8137;fontColor=#333333;strokeWidth=2;fontFamily=Times New Roman;fontSize=15;" parent="1" vertex="1">
          <mxGeometry x="300" y="-160" width="160" height="80" as="geometry" />
        </mxCell>
        <mxCell id="NbjEq-aSMOwebAD5fnaP-5" value="KHÁCH" style="html=1;dashed=0;whiteSpace=wrap;fontStyle=1;fillColor=#f5f5f5;fontColor=#333333;strokeColor=#00B050;strokeWidth=2;fontFamily=Times New Roman;fontSize=15;" parent="1" vertex="1">
          <mxGeometry x="300" y="-640" width="160" height="80" as="geometry" />
        </mxCell>
        <mxCell id="NbjEq-aSMOwebAD5fnaP-6" value="15&lt;span style=&quot;white-space: pre; font-size: 12px;&quot;&gt;&#x9;&lt;/span&gt;Hồ sơ báo cáo sự cố" style="html=1;dashed=0;whiteSpace=wrap;shape=mxgraph.dfd.dataStoreID;align=left;spacingLeft=8;points=[[0,0],[0.5,0],[1,0],[0,0.5],[1,0.5],[0,1],[0.5,1],[1,1]];fontSize=12;verticalAlign=middle;fillColor=#dae8fc;fontStyle=1;labelBackgroundColor=none;fontFamily=Times New Roman;strokeColor=#6c8ebf;" parent="1" vertex="1">
          <mxGeometry x="380" y="-320" width="150" height="30" as="geometry" />
        </mxCell>
        <mxCell id="NbjEq-aSMOwebAD5fnaP-7" value="16&lt;span style=&quot;white-space: pre; font-size: 12px;&quot;&gt;&#x9;&lt;/span&gt;Hồ sơ biên bản giải quyết sự cố" style="html=1;dashed=0;whiteSpace=wrap;shape=mxgraph.dfd.dataStoreID;align=left;spacingLeft=8;points=[[0,0],[0.5,0],[1,0],[0,0.5],[1,0.5],[0,1],[0.5,1],[1,1]];fontSize=12;verticalAlign=middle;fillColor=#dae8fc;fontStyle=1;labelBackgroundColor=none;fontFamily=Times New Roman;strokeColor=#6c8ebf;" parent="1" vertex="1">
          <mxGeometry x="470" y="-280" width="200" height="30" as="geometry" />
        </mxCell>
        <mxCell id="NbjEq-aSMOwebAD5fnaP-8" value="" style="endArrow=classic;html=1;rounded=0;edgeStyle=orthogonalEdgeStyle;strokeColor=#ED8137;fontSize=15;jumpStyle=arc;fontFamily=Times New Roman;fontStyle=1;" parent="1" source="NbjEq-aSMOwebAD5fnaP-3" target="NbjEq-aSMOwebAD5fnaP-4" edge="1">
          <mxGeometry width="50" height="50" relative="1" as="geometry">
            <mxPoint x="720" y="-120.5" as="sourcePoint" />
            <mxPoint x="460" y="-120.5" as="targetPoint" />
            <Array as="points" />
          </mxGeometry>
        </mxCell>
        <mxCell id="NbjEq-aSMOwebAD5fnaP-10" value="" style="endArrow=classic;html=1;rounded=0;edgeStyle=orthogonalEdgeStyle;strokeColor=#00b0f0;fontSize=15;jumpStyle=arc;fontFamily=Times New Roman;fontStyle=1" parent="1" source="NbjEq-aSMOwebAD5fnaP-6" target="NbjEq-aSMOwebAD5fnaP-2" edge="1">
          <mxGeometry width="50" height="50" relative="1" as="geometry">
            <mxPoint x="400" y="-350" as="sourcePoint" />
            <mxPoint x="640" y="-350" as="targetPoint" />
            <Array as="points">
              <mxPoint x="460" y="-420" />
            </Array>
          </mxGeometry>
        </mxCell>
        <mxCell id="-dCPktguyfeUH-rUfmvf-1" value="Thông tin giải quyết sự cố" style="text;html=1;align=center;verticalAlign=middle;resizable=0;points=[];autosize=1;strokeColor=none;fillColor=none;fontSize=12;fontStyle=1" parent="1" vertex="1">
          <mxGeometry x="460" y="-85" width="170" height="30" as="geometry" />
        </mxCell>
        <mxCell id="-dCPktguyfeUH-rUfmvf-2" value="" style="endArrow=classic;html=1;rounded=0;edgeStyle=orthogonalEdgeStyle;strokeColor=#00B050;fontSize=15;jumpStyle=arc;fontFamily=Times New Roman;fontStyle=1" parent="1" source="NbjEq-aSMOwebAD5fnaP-5" target="NbjEq-aSMOwebAD5fnaP-1" edge="1">
          <mxGeometry width="50" height="50" relative="1" as="geometry">
            <mxPoint x="40" y="-360.42" as="sourcePoint" />
            <mxPoint x="280" y="-360.42" as="targetPoint" />
            <Array as="points" />
          </mxGeometry>
        </mxCell>
        <mxCell id="-dCPktguyfeUH-rUfmvf-3" value="Thông tin sự cố" style="text;html=1;align=center;verticalAlign=middle;resizable=0;points=[];autosize=1;strokeColor=none;fillColor=none;fontSize=12;fontStyle=1" parent="1" vertex="1">
          <mxGeometry x="325" y="-500" width="110" height="30" as="geometry" />
        </mxCell>
        <mxCell id="Qw_sV81F83elhA42Ov9B-2" value="" style="endArrow=classic;html=1;rounded=0;edgeStyle=orthogonalEdgeStyle;strokeColor=#000000;fontSize=15;jumpStyle=arc;fontFamily=Times New Roman;fontStyle=1" parent="1" source="NbjEq-aSMOwebAD5fnaP-1" target="NbjEq-aSMOwebAD5fnaP-2" edge="1">
          <mxGeometry width="50" height="50" relative="1" as="geometry">
            <mxPoint x="450" y="-360.42" as="sourcePoint" />
            <mxPoint x="690" y="-360.42" as="targetPoint" />
            <Array as="points">
              <mxPoint x="590" y="-430" />
              <mxPoint x="590" y="-430" />
            </Array>
          </mxGeometry>
        </mxCell>
        <mxCell id="Qw_sV81F83elhA42Ov9B-3" value="Thông tin sự cố" style="text;html=1;align=center;verticalAlign=middle;resizable=0;points=[];autosize=1;strokeColor=none;fillColor=none;fontSize=12;fontStyle=1" parent="1" vertex="1">
          <mxGeometry x="520" y="-455" width="110" height="30" as="geometry" />
        </mxCell>
        <mxCell id="Qw_sV81F83elhA42Ov9B-4" value="" style="endArrow=classic;html=1;rounded=0;edgeStyle=orthogonalEdgeStyle;strokeColor=#00B050;fontSize=15;jumpStyle=arc;fontFamily=Times New Roman;fontStyle=1" parent="1" source="NbjEq-aSMOwebAD5fnaP-2" target="NbjEq-aSMOwebAD5fnaP-5" edge="1">
          <mxGeometry width="50" height="50" relative="1" as="geometry">
            <mxPoint x="480" y="-490" as="sourcePoint" />
            <mxPoint x="720" y="-490" as="targetPoint" />
            <Array as="points">
              <mxPoint x="780" y="-600" />
            </Array>
          </mxGeometry>
        </mxCell>
        <mxCell id="Qw_sV81F83elhA42Ov9B-6" value="&quot;Thông tin sự cố không hợp lệ&quot;" style="text;html=1;align=center;verticalAlign=middle;resizable=0;points=[];autosize=1;strokeColor=none;fillColor=none;fontSize=12;fontStyle=1" parent="1" vertex="1">
          <mxGeometry x="518" y="-625" width="200" height="30" as="geometry" />
        </mxCell>
        <mxCell id="Qw_sV81F83elhA42Ov9B-10" value="Thông tin giải quyết sự cố" style="text;html=1;align=center;verticalAlign=middle;resizable=0;points=[];autosize=1;strokeColor=none;fillColor=none;fontSize=12;fontStyle=1;rotation=0;" parent="1" vertex="1">
          <mxGeometry x="500" y="-165" width="170" height="30" as="geometry" />
        </mxCell>
        <mxCell id="Qw_sV81F83elhA42Ov9B-12" value="Biên bản giải quyết sự cố" style="text;html=1;align=center;verticalAlign=middle;resizable=0;points=[];autosize=1;strokeColor=none;fillColor=none;fontSize=12;fontStyle=1" parent="1" vertex="1">
          <mxGeometry x="500" y="-125" width="170" height="30" as="geometry" />
        </mxCell>
        <mxCell id="Qw_sV81F83elhA42Ov9B-16" value="" style="endArrow=classic;html=1;rounded=0;edgeStyle=orthogonalEdgeStyle;strokeColor=#000000;fontSize=15;jumpStyle=arc;fontFamily=Times New Roman;fontStyle=1" parent="1" source="NbjEq-aSMOwebAD5fnaP-2" target="NbjEq-aSMOwebAD5fnaP-3" edge="1">
          <mxGeometry width="50" height="50" relative="1" as="geometry">
            <mxPoint x="700" y="-290" as="sourcePoint" />
            <mxPoint x="980" y="-290" as="targetPoint" />
            <Array as="points">
              <mxPoint x="810" y="-180" />
              <mxPoint x="810" y="-180" />
            </Array>
          </mxGeometry>
        </mxCell>
        <mxCell id="Qw_sV81F83elhA42Ov9B-17" value="&quot;Thông tin sự cố hợp lệ&quot;" style="text;html=1;align=center;verticalAlign=middle;resizable=0;points=[];autosize=1;strokeColor=none;fillColor=none;fontSize=12;fontStyle=1" parent="1" vertex="1">
          <mxGeometry x="720" y="-300" width="170" height="30" as="geometry" />
        </mxCell>
        <mxCell id="Qw_sV81F83elhA42Ov9B-18" value="" style="endArrow=classic;html=1;rounded=0;edgeStyle=orthogonalEdgeStyle;strokeColor=#ED8137;fontSize=15;jumpStyle=arc;fontFamily=Times New Roman;fontStyle=1;" parent="1" source="NbjEq-aSMOwebAD5fnaP-4" target="NbjEq-aSMOwebAD5fnaP-3" edge="1">
          <mxGeometry width="50" height="50" relative="1" as="geometry">
            <mxPoint x="470" y="-110" as="sourcePoint" />
            <mxPoint x="730" y="-110" as="targetPoint" />
            <Array as="points">
              <mxPoint x="590" y="-100" />
              <mxPoint x="590" y="-100" />
            </Array>
          </mxGeometry>
        </mxCell>
        <mxCell id="Qw_sV81F83elhA42Ov9B-19" value="" style="endArrow=classic;html=1;rounded=0;edgeStyle=orthogonalEdgeStyle;strokeColor=#ED8137;fontSize=15;jumpStyle=arc;fontFamily=Times New Roman;fontStyle=1;" parent="1" source="NbjEq-aSMOwebAD5fnaP-4" target="NbjEq-aSMOwebAD5fnaP-3" edge="1">
          <mxGeometry width="50" height="50" relative="1" as="geometry">
            <mxPoint x="470" y="-110" as="sourcePoint" />
            <mxPoint x="730" y="-110" as="targetPoint" />
            <Array as="points">
              <mxPoint x="590" y="-140" />
              <mxPoint x="590" y="-140" />
            </Array>
          </mxGeometry>
        </mxCell>
        <mxCell id="Qw_sV81F83elhA42Ov9B-20" value="Thông tin sự cố" style="text;html=1;align=center;verticalAlign=middle;resizable=0;points=[];autosize=1;strokeColor=none;fillColor=none;fontSize=12;fontStyle=1" parent="1" vertex="1">
          <mxGeometry x="530" y="-145" width="110" height="30" as="geometry" />
        </mxCell>
        <mxCell id="Qw_sV81F83elhA42Ov9B-21" value="" style="endArrow=classic;html=1;rounded=0;edgeStyle=orthogonalEdgeStyle;strokeColor=#00B050;fontSize=15;jumpStyle=arc;fontFamily=Times New Roman;fontStyle=1" parent="1" source="NbjEq-aSMOwebAD5fnaP-3" target="NbjEq-aSMOwebAD5fnaP-5" edge="1">
          <mxGeometry width="50" height="50" relative="1" as="geometry">
            <mxPoint x="640" y="110" as="sourcePoint" />
            <mxPoint x="320" y="-50" as="targetPoint" />
            <Array as="points">
              <mxPoint x="780" y="-60" />
              <mxPoint x="280" y="-60" />
              <mxPoint x="280" y="-600" />
            </Array>
          </mxGeometry>
        </mxCell>
        <mxCell id="Qw_sV81F83elhA42Ov9B-24" value="" style="endArrow=classic;html=1;rounded=0;edgeStyle=orthogonalEdgeStyle;strokeColor=#00b0f0;fontSize=15;jumpStyle=arc;fontFamily=Times New Roman;fontStyle=1" parent="1" source="NbjEq-aSMOwebAD5fnaP-2" target="NbjEq-aSMOwebAD5fnaP-6" edge="1">
          <mxGeometry width="50" height="50" relative="1" as="geometry">
            <mxPoint x="730" y="-410" as="sourcePoint" />
            <mxPoint x="525" y="-310" as="targetPoint" />
            <Array as="points">
              <mxPoint x="480" y="-400" />
            </Array>
          </mxGeometry>
        </mxCell>
        <mxCell id="Qw_sV81F83elhA42Ov9B-25" value="" style="endArrow=classic;html=1;rounded=0;edgeStyle=orthogonalEdgeStyle;strokeColor=#00b0f0;fontSize=15;jumpStyle=arc;fontFamily=Times New Roman;fontStyle=1" parent="1" source="NbjEq-aSMOwebAD5fnaP-2" target="NbjEq-aSMOwebAD5fnaP-7" edge="1">
          <mxGeometry width="50" height="50" relative="1" as="geometry">
            <mxPoint x="730" y="-400" as="sourcePoint" />
            <mxPoint x="535" y="-310" as="targetPoint" />
            <Array as="points">
              <mxPoint x="560" y="-380" />
            </Array>
          </mxGeometry>
        </mxCell>
        <mxCell id="Qw_sV81F83elhA42Ov9B-26" value="" style="endArrow=classic;html=1;rounded=0;edgeStyle=orthogonalEdgeStyle;strokeColor=#00b0f0;fontSize=15;jumpStyle=arc;fontFamily=Times New Roman;fontStyle=1" parent="1" source="NbjEq-aSMOwebAD5fnaP-7" target="NbjEq-aSMOwebAD5fnaP-2" edge="1">
          <mxGeometry width="50" height="50" relative="1" as="geometry">
            <mxPoint x="570" y="-230" as="sourcePoint" />
            <mxPoint x="730" y="-390" as="targetPoint" />
            <Array as="points">
              <mxPoint x="580" y="-370" />
            </Array>
          </mxGeometry>
        </mxCell>
        <mxCell id="Qw_sV81F83elhA42Ov9B-27" value="" style="endArrow=classic;html=1;rounded=0;edgeStyle=orthogonalEdgeStyle;strokeColor=#00b0f0;fontSize=15;jumpStyle=arc;fontFamily=Times New Roman;fontStyle=1" parent="1" source="NbjEq-aSMOwebAD5fnaP-7" target="NbjEq-aSMOwebAD5fnaP-3" edge="1">
          <mxGeometry width="50" height="50" relative="1" as="geometry">
            <mxPoint x="580" y="-135" as="sourcePoint" />
            <mxPoint x="720" y="-225" as="targetPoint" />
            <Array as="points">
              <mxPoint x="580" y="-230" />
              <mxPoint x="790" y="-230" />
            </Array>
          </mxGeometry>
        </mxCell>
        <mxCell id="Qw_sV81F83elhA42Ov9B-28" value="" style="endArrow=classic;html=1;rounded=0;edgeStyle=orthogonalEdgeStyle;strokeColor=#00b0f0;fontSize=15;jumpStyle=arc;fontFamily=Times New Roman;fontStyle=1" parent="1" source="NbjEq-aSMOwebAD5fnaP-3" target="NbjEq-aSMOwebAD5fnaP-7" edge="1">
          <mxGeometry width="50" height="50" relative="1" as="geometry">
            <mxPoint x="770" y="-150" as="sourcePoint" />
            <mxPoint x="590" y="-240" as="targetPoint" />
            <Array as="points">
              <mxPoint x="770" y="-210" />
              <mxPoint x="560" y="-210" />
            </Array>
          </mxGeometry>
        </mxCell>
        <mxCell id="Qw_sV81F83elhA42Ov9B-29" value="" style="endArrow=classic;html=1;rounded=0;edgeStyle=orthogonalEdgeStyle;strokeColor=#00b0f0;fontSize=15;jumpStyle=arc;fontFamily=Times New Roman;fontStyle=1" parent="1" source="NbjEq-aSMOwebAD5fnaP-3" target="NbjEq-aSMOwebAD5fnaP-6" edge="1">
          <mxGeometry width="50" height="50" relative="1" as="geometry">
            <mxPoint x="780" y="-150" as="sourcePoint" />
            <mxPoint x="570" y="-240" as="targetPoint" />
            <Array as="points">
              <mxPoint x="750" y="-190" />
              <mxPoint x="450" y="-190" />
            </Array>
          </mxGeometry>
        </mxCell>
      </root>
    </mxGraphModel>
  </diagram>
</mxfile>
